solid OpenSCAD_Model
  facet normal -1 0 0
    outer loop
      vertex 25 13.9718 -2.53551
      vertex 25 12.7 0
      vertex 25 14.1857 -0.63707
    endloop
  endfacet
  facet normal -1 0 0
    outer loop
      vertex 25 12.3816 -2.826
      vertex 25 12.7 0
      vertex 25 13.9718 -2.53551
    endloop
  endfacet
  facet normal -1 0 0
    outer loop
      vertex 25 12.3816 -2.826
      vertex 25 11.2 0
      vertex 25 12.7 0
    endloop
  endfacet
  facet normal -1 0 0
    outer loop
      vertex 25 10.9192 -2.49223
      vertex 25 11.2 0
      vertex 25 12.3816 -2.826
    endloop
  endfacet
  facet normal -1 0 0
    outer loop
      vertex 25 10.9192 -2.49223
      vertex 25 10.9192 2.49223
      vertex 25 11.2 0
    endloop
  endfacet
  facet normal -1 0 -0
    outer loop
      vertex 25 10.9192 2.49223
      vertex 25 10.9192 -2.49223
      vertex 25 10.0909 -4.8595
    endloop
  endfacet
  facet normal -1 0 0
    outer loop
      vertex 25 12.3816 2.826
      vertex 25 13.0573 5.58095
      vertex 25 13.6883 3.77771
    endloop
  endfacet
  facet normal -1 0 0
    outer loop
      vertex 25 12.3816 2.826
      vertex 25 11.4423 5.51031
      vertex 25 13.0573 5.58095
    endloop
  endfacet
  facet normal -1 0 0
    outer loop
      vertex 25 10.9192 2.49223
      vertex 25 11.4423 5.51031
      vertex 25 12.3816 2.826
    endloop
  endfacet
  facet normal -1 0 0
    outer loop
      vertex 25 10.9192 2.49223
      vertex 25 10.0909 4.8595
      vertex 25 11.4423 5.51031
    endloop
  endfacet
  facet normal -1 0 0
    outer loop
      vertex 25 10.0909 4.8595
      vertex 25 10.9192 2.49223
      vertex 25 10.0909 -4.8595
    endloop
  endfacet
  facet normal -1 0 0
    outer loop
      vertex 25 -10.0909 -4.8595
      vertex 25 -10.9192 -2.49223
      vertex 25 -10.0909 4.8595
    endloop
  endfacet
  facet normal -1 0 0
    outer loop
      vertex 25 -11.4423 -5.51031
      vertex 25 -10.9192 -2.49223
      vertex 25 -10.0909 -4.8595
    endloop
  endfacet
  facet normal -1 0 0
    outer loop
      vertex 25 -11.4423 -5.51031
      vertex 25 -12.3816 -2.826
      vertex 25 -10.9192 -2.49223
    endloop
  endfacet
  facet normal -1 0 0
    outer loop
      vertex 25 -13.0573 -5.58095
      vertex 25 -12.3816 -2.826
      vertex 25 -11.4423 -5.51031
    endloop
  endfacet
  facet normal -1 0 0
    outer loop
      vertex 25 -12.3816 -2.826
      vertex 25 -13.0573 -5.58095
      vertex 25 -13.6883 -3.77771
    endloop
  endfacet
  facet normal -1 0 0
    outer loop
      vertex 25 -9.92924 -7.91832
      vertex 25 -7.91832 -9.92924
      vertex 25 -9.34273 -10.6936
    endloop
  endfacet
  facet normal -1 0 0
    outer loop
      vertex 25 -7.91832 -9.92924
      vertex 25 -9.92924 -7.91832
      vertex 25 -8.7565 -6.98308
    endloop
  endfacet
  facet normal -1 0 -0
    outer loop
      vertex 25 -9.92924 -7.91832
      vertex 25 -9.34273 -10.6936
      vertex 25 -10.6936 -9.34273
    endloop
  endfacet
  facet normal -1 0 0
    outer loop
      vertex 25 -8.7565 -6.98308
      vertex 25 -6.98308 -8.7565
      vertex 25 -7.91832 -9.92924
    endloop
  endfacet
  facet normal -1 0 0
    outer loop
      vertex 25 -6.98308 -8.7565
      vertex 25 -8.7565 -6.98308
      vertex 25 -6.98308 8.7565
    endloop
  endfacet
  facet normal -1 0 0
    outer loop
      vertex 25 -8.7565 -6.98308
      vertex 25 -8.7565 6.98308
      vertex 25 -6.98308 8.7565
    endloop
  endfacet
  facet normal -1 0 0
    outer loop
      vertex 25 -10.0909 4.8595
      vertex 25 -8.7565 6.98308
      vertex 25 -8.7565 -6.98308
    endloop
  endfacet
  facet normal -1 0 0
    outer loop
      vertex 25 -10.0909 4.8595
      vertex 25 -8.7565 -6.98308
      vertex 25 -10.0909 -4.8595
    endloop
  endfacet
  facet normal -1 -0 0
    outer loop
      vertex 25 -8.7565 6.98308
      vertex 25 -10.0909 4.8595
      vertex 25 -9.92924 7.91832
    endloop
  endfacet
  facet normal -1 0 0
    outer loop
      vertex 25 -11.4423 5.51031
      vertex 25 -9.92924 7.91832
      vertex 25 -10.0909 4.8595
    endloop
  endfacet
  facet normal -1 0 0
    outer loop
      vertex 25 -11.4423 5.51031
      vertex 25 -11.488 8.34654
      vertex 25 -9.92924 7.91832
    endloop
  endfacet
  facet normal -1 0 -0
    outer loop
      vertex 25 -11.488 8.34654
      vertex 25 -11.4423 5.51031
      vertex 25 -12.5045 6.72893
    endloop
  endfacet
  facet normal -1 0 0
    outer loop
      vertex 25 -2.826 -12.3816
      vertex 25 -5.51031 -11.4423
      vertex 25 -4.8595 -10.0909
    endloop
  endfacet
  facet normal -1 0 -0
    outer loop
      vertex 25 -5.51031 -11.4423
      vertex 25 -3.77771 -13.6883
      vertex 25 -5.58095 -13.0573
    endloop
  endfacet
  facet normal -1 0 0
    outer loop
      vertex 25 -10.9192 -2.49223
      vertex 25 -10.9192 2.49223
      vertex 25 -10.0909 4.8595
    endloop
  endfacet
  facet normal -1 0 0
    outer loop
      vertex 25 -11.2 0
      vertex 25 -10.9192 2.49223
      vertex 25 -10.9192 -2.49223
    endloop
  endfacet
  facet normal -1 0 0
    outer loop
      vertex 25 -11.2 0
      vertex 25 -12.3816 2.826
      vertex 25 -10.9192 2.49223
    endloop
  endfacet
  facet normal -1 0 0
    outer loop
      vertex 25 -12.7 0
      vertex 25 -12.3816 2.826
      vertex 25 -11.2 0
    endloop
  endfacet
  facet normal -1 0 0
    outer loop
      vertex 25 -12.7 0
      vertex 25 -13.9718 2.53551
      vertex 25 -12.3816 2.826
    endloop
  endfacet
  facet normal -1 0 -0
    outer loop
      vertex 25 -13.9718 2.53551
      vertex 25 -12.7 0
      vertex 25 -14.1857 0.63707
    endloop
  endfacet
  facet normal -1 0 0
    outer loop
      vertex 25 -6.98308 8.7565
      vertex 25 -2.29508 1.51497
      vertex 25 -2.5287 1.08082
    endloop
  endfacet
  facet normal -1 0 0
    outer loop
      vertex 25 -6.98308 8.7565
      vertex 25 -2.5287 1.08082
      vertex 25 -2.68105 0.611932
    endloop
  endfacet
  facet normal -1 0 0
    outer loop
      vertex 25 -6.98308 8.7565
      vertex 25 -2.68105 0.611932
      vertex 25 -2.74723 0.123378
    endloop
  endfacet
  facet normal -1 -0 0
    outer loop
      vertex 25 -2.42164 -1.30314
      vertex 25 -6.98308 -8.7565
      vertex 25 -2.61541 -0.849796
    endloop
  endfacet
  facet normal -1 -0 0
    outer loop
      vertex 25 -2.61541 -0.849796
      vertex 25 -6.98308 -8.7565
      vertex 25 -2.72511 -0.369141
    endloop
  endfacet
  facet normal -1 -0 0
    outer loop
      vertex 25 -2.72511 -0.369141
      vertex 25 -6.98308 -8.7565
      vertex 25 -2.74723 0.123378
    endloop
  endfacet
  facet normal -1 0 0
    outer loop
      vertex 25 -2.29508 1.51497
      vertex 25 -4.8595 10.0909
      vertex 25 -2.49223 10.9192
    endloop
  endfacet
  facet normal -1 0 0
    outer loop
      vertex 25 -2.29508 1.51497
      vertex 25 -6.98308 8.7565
      vertex 25 -4.8595 10.0909
    endloop
  endfacet
  facet normal -1 -0 0
    outer loop
      vertex 25 -4.8595 10.0909
      vertex 25 -6.98308 8.7565
      vertex 25 -5.51031 11.4423
    endloop
  endfacet
  facet normal -1 -0 0
    outer loop
      vertex 25 -2.74723 0.123378
      vertex 25 -6.98308 -8.7565
      vertex 25 -6.98308 8.7565
    endloop
  endfacet
  facet normal -1 0 0
    outer loop
      vertex 25 -7.91832 9.92924
      vertex 25 -5.51031 11.4423
      vertex 25 -6.98308 8.7565
    endloop
  endfacet
  facet normal -1 -0 0
    outer loop
      vertex 25 -5.51031 11.4423
      vertex 25 -7.91832 9.92924
      vertex 25 -6.72893 12.5045
    endloop
  endfacet
  facet normal -1 0 0
    outer loop
      vertex 25 -6.72893 12.5045
      vertex 25 -7.91832 9.92924
      vertex 25 -8.34654 11.488
    endloop
  endfacet
  facet normal -1 0 0
    outer loop
      vertex 25 0 -12.7
      vertex 25 2.826 -12.3816
      vertex 25 2.53551 -13.9718
    endloop
  endfacet
  facet normal -1 0 0
    outer loop
      vertex 25 6.98308 -8.7565
      vertex 25 2.15004 -1.7146
      vertex 25 2.42164 -1.30314
    endloop
  endfacet
  facet normal -1 -0 0
    outer loop
      vertex 25 2.826 -12.3816
      vertex 25 0 -12.7
      vertex 25 2.49223 -10.9192
    endloop
  endfacet
  facet normal -1 0 0
    outer loop
      vertex 25 4.8595 -10.0909
      vertex 25 1.80933 -2.07095
      vertex 25 2.15004 -1.7146
    endloop
  endfacet
  facet normal -1 0 -0
    outer loop
      vertex 25 1.12128 -2.5
      vertex 25 2.49223 -10.9192
      vertex 25 0 -11.2
    endloop
  endfacet
  facet normal -1 0 0
    outer loop
      vertex 25 4.8595 -10.0909
      vertex 25 1.41047 -2.36073
      vertex 25 1.80933 -2.07095
    endloop
  endfacet
  facet normal -1 0 0
    outer loop
      vertex 25 0 -12.7
      vertex 25 2.53551 -13.9718
      vertex 25 0.63707 -14.1857
    endloop
  endfacet
  facet normal -1 0 0
    outer loop
      vertex 25 2.49223 -10.9192
      vertex 25 0 -12.7
      vertex 25 0 -11.2
    endloop
  endfacet
  facet normal -1 0 0
    outer loop
      vertex 25 4.8595 -10.0909
      vertex 25 1.12128 -2.5
      vertex 25 1.41047 -2.36073
    endloop
  endfacet
  facet normal -1 0 0
    outer loop
      vertex 25 0 -11.2
      vertex 25 -1.12128 -2.5
      vertex 25 1.12128 -2.5
    endloop
  endfacet
  facet normal -1 0 0
    outer loop
      vertex 25 -2.49223 -10.9192
      vertex 25 -1.12128 -2.5
      vertex 25 0 -11.2
    endloop
  endfacet
  facet normal -1 0 0
    outer loop
      vertex 25 -4.8595 -10.0909
      vertex 25 -1.12128 -2.5
      vertex 25 -2.49223 -10.9192
    endloop
  endfacet
  facet normal -1 -0 0
    outer loop
      vertex 25 -1.12128 -2.5
      vertex 25 -4.8595 -10.0909
      vertex 25 -1.41047 -2.36073
    endloop
  endfacet
  facet normal -1 0 0
    outer loop
      vertex 25 -6.98308 -8.7565
      vertex 25 -1.41047 -2.36073
      vertex 25 -4.8595 -10.0909
    endloop
  endfacet
  facet normal -1 -0 0
    outer loop
      vertex 25 -1.41047 -2.36073
      vertex 25 -6.98308 -8.7565
      vertex 25 -1.80933 -2.07095
    endloop
  endfacet
  facet normal -1 -0 0
    outer loop
      vertex 25 -1.80933 -2.07095
      vertex 25 -6.98308 -8.7565
      vertex 25 -2.15004 -1.7146
    endloop
  endfacet
  facet normal -1 0 0
    outer loop
      vertex 25 -2.826 -12.3816
      vertex 25 -4.8595 -10.0909
      vertex 25 -2.49223 -10.9192
    endloop
  endfacet
  facet normal -1 0 0
    outer loop
      vertex 25 -5.51031 -11.4423
      vertex 25 -2.826 -12.3816
      vertex 25 -3.77771 -13.6883
    endloop
  endfacet
  facet normal -1 -0 0
    outer loop
      vertex 25 -2.15004 -1.7146
      vertex 25 -6.98308 -8.7565
      vertex 25 -2.42164 -1.30314
    endloop
  endfacet
  facet normal -1 0 0
    outer loop
      vertex 25 5.51031 -11.4423
      vertex 25 7.91832 -9.92924
      vertex 25 8.34654 -11.488
    endloop
  endfacet
  facet normal -1 0 0
    outer loop
      vertex 25 5.51031 -11.4423
      vertex 25 8.34654 -11.488
      vertex 25 6.72893 -12.5045
    endloop
  endfacet
  facet normal -1 -0 0
    outer loop
      vertex 25 7.91832 -9.92924
      vertex 25 5.51031 -11.4423
      vertex 25 6.98308 -8.7565
    endloop
  endfacet
  facet normal -1 0 0
    outer loop
      vertex 25 6.98308 -8.7565
      vertex 25 5.51031 -11.4423
      vertex 25 4.8595 -10.0909
    endloop
  endfacet
  facet normal -1 0 0
    outer loop
      vertex 25 2.15004 -1.7146
      vertex 25 6.98308 -8.7565
      vertex 25 4.8595 -10.0909
    endloop
  endfacet
  facet normal -1 0 -0
    outer loop
      vertex 25 2.74723 0.123378
      vertex 25 6.98308 -8.7565
      vertex 25 2.72511 -0.369141
    endloop
  endfacet
  facet normal -1 0 0
    outer loop
      vertex 25 2.68105 0.611932
      vertex 25 6.98308 8.7565
      vertex 25 2.74723 0.123378
    endloop
  endfacet
  facet normal -1 0 0
    outer loop
      vertex 25 2.5287 1.08082
      vertex 25 6.98308 8.7565
      vertex 25 2.68105 0.611932
    endloop
  endfacet
  facet normal -1 0 0
    outer loop
      vertex 25 2.29508 1.51497
      vertex 25 6.98308 8.7565
      vertex 25 2.5287 1.08082
    endloop
  endfacet
  facet normal -1 0 0
    outer loop
      vertex 25 6.98308 -8.7565
      vertex 25 2.74723 0.123378
      vertex 25 6.98308 8.7565
    endloop
  endfacet
  facet normal -1 0 0
    outer loop
      vertex 25 6.98308 -8.7565
      vertex 25 2.61541 -0.849796
      vertex 25 2.72511 -0.369141
    endloop
  endfacet
  facet normal -1 0 0
    outer loop
      vertex 25 1.12128 -2.5
      vertex 25 4.8595 -10.0909
      vertex 25 2.49223 -10.9192
    endloop
  endfacet
  facet normal -1 0 0
    outer loop
      vertex 25 6.98308 -8.7565
      vertex 25 2.42164 -1.30314
      vertex 25 2.61541 -0.849796
    endloop
  endfacet
  facet normal -1 0 0
    outer loop
      vertex 25 11.488 -8.34654
      vertex 25 11.4423 -5.51031
      vertex 25 12.5045 -6.72893
    endloop
  endfacet
  facet normal -1 0 0
    outer loop
      vertex 25 9.92924 -7.91832
      vertex 25 11.4423 -5.51031
      vertex 25 11.488 -8.34654
    endloop
  endfacet
  facet normal -1 -0 0
    outer loop
      vertex 25 11.4423 -5.51031
      vertex 25 9.92924 -7.91832
      vertex 25 10.0909 -4.8595
    endloop
  endfacet
  facet normal -1 0 0
    outer loop
      vertex 25 8.7565 -6.98308
      vertex 25 10.0909 -4.8595
      vertex 25 9.92924 -7.91832
    endloop
  endfacet
  facet normal -1 -0 0
    outer loop
      vertex 25 10.0909 -4.8595
      vertex 25 8.7565 -6.98308
      vertex 25 10.0909 4.8595
    endloop
  endfacet
  facet normal -1 0 0
    outer loop
      vertex 25 8.7565 -6.98308
      vertex 25 8.7565 6.98308
      vertex 25 10.0909 4.8595
    endloop
  endfacet
  facet normal -1 0 0
    outer loop
      vertex 25 6.98308 8.7565
      vertex 25 8.7565 6.98308
      vertex 25 8.7565 -6.98308
    endloop
  endfacet
  facet normal -1 0 0
    outer loop
      vertex 25 6.98308 8.7565
      vertex 25 8.7565 -6.98308
      vertex 25 6.98308 -8.7565
    endloop
  endfacet
  facet normal -1 0 0
    outer loop
      vertex 25 8.7565 6.98308
      vertex 25 6.98308 8.7565
      vertex 25 7.91832 9.92924
    endloop
  endfacet
  facet normal -1 0 0
    outer loop
      vertex 25 9.92924 7.91832
      vertex 25 9.34273 10.6936
      vertex 25 10.6936 9.34273
    endloop
  endfacet
  facet normal -1 0 0
    outer loop
      vertex 25 7.91832 9.92924
      vertex 25 9.92924 7.91832
      vertex 25 8.7565 6.98308
    endloop
  endfacet
  facet normal -1 0 0
    outer loop
      vertex 25 9.92924 7.91832
      vertex 25 7.91832 9.92924
      vertex 25 9.34273 10.6936
    endloop
  endfacet
  facet normal -1 0 0
    outer loop
      vertex 25 3.77771 13.6883
      vertex 25 5.51031 11.4423
      vertex 25 4.8595 10.0909
    endloop
  endfacet
  facet normal -1 0 0
    outer loop
      vertex 25 5.51031 11.4423
      vertex 25 3.77771 13.6883
      vertex 25 5.58095 13.0573
    endloop
  endfacet
  facet normal -1 0 0
    outer loop
      vertex 25 1.98769 1.90042
      vertex 25 6.98308 8.7565
      vertex 25 2.29508 1.51497
    endloop
  endfacet
  facet normal -1 0 -0
    outer loop
      vertex 25 2.826 12.3816
      vertex 25 4.8595 10.0909
      vertex 25 2.49223 10.9192
    endloop
  endfacet
  facet normal -1 0 0
    outer loop
      vertex 25 4.8595 10.0909
      vertex 25 2.826 12.3816
      vertex 25 3.77771 13.6883
    endloop
  endfacet
  facet normal -1 0 0
    outer loop
      vertex 25 1.61641 2.2248
      vertex 25 6.98308 8.7565
      vertex 25 1.98769 1.90042
    endloop
  endfacet
  facet normal -1 -0 0
    outer loop
      vertex 25 6.98308 8.7565
      vertex 25 1.61641 2.2248
      vertex 25 4.8595 10.0909
    endloop
  endfacet
  facet normal -1 0 0
    outer loop
      vertex 25 1.19318 2.47766
      vertex 25 4.8595 10.0909
      vertex 25 1.61641 2.2248
    endloop
  endfacet
  facet normal -1 0 0
    outer loop
      vertex 25 0.731601 2.6509
      vertex 25 4.8595 10.0909
      vertex 25 1.19318 2.47766
    endloop
  endfacet
  facet normal -1 -0 0
    outer loop
      vertex 25 4.8595 10.0909
      vertex 25 0.731601 2.6509
      vertex 25 2.49223 10.9192
    endloop
  endfacet
  facet normal -1 0 0
    outer loop
      vertex 25 0.246508 2.73893
      vertex 25 2.49223 10.9192
      vertex 25 0.731601 2.6509
    endloop
  endfacet
  facet normal -1 0 0
    outer loop
      vertex 25 0.246508 2.73893
      vertex 25 0 11.2
      vertex 25 2.49223 10.9192
    endloop
  endfacet
  facet normal -1 0 0
    outer loop
      vertex 25 -0.246508 2.73893
      vertex 25 0 11.2
      vertex 25 0.246508 2.73893
    endloop
  endfacet
  facet normal -1 0 0
    outer loop
      vertex 25 -2.49223 10.9192
      vertex 25 0 11.2
      vertex 25 -0.246508 2.73893
    endloop
  endfacet
  facet normal -1 -0 0
    outer loop
      vertex 25 0 11.2
      vertex 25 -2.49223 10.9192
      vertex 25 0 12.7
    endloop
  endfacet
  facet normal -1 0 0
    outer loop
      vertex 25 -2.49223 10.9192
      vertex 25 -0.246508 2.73893
      vertex 25 -0.731601 2.6509
    endloop
  endfacet
  facet normal -1 0 0
    outer loop
      vertex 25 -2.49223 10.9192
      vertex 25 -0.731601 2.6509
      vertex 25 -1.19318 2.47766
    endloop
  endfacet
  facet normal -1 0 0
    outer loop
      vertex 25 -2.49223 10.9192
      vertex 25 -1.19318 2.47766
      vertex 25 -1.61641 2.2248
    endloop
  endfacet
  facet normal -1 0 0
    outer loop
      vertex 25 -2.49223 10.9192
      vertex 25 -1.61641 2.2248
      vertex 25 -1.98769 1.90042
    endloop
  endfacet
  facet normal -1 0 0
    outer loop
      vertex 25 -2.49223 10.9192
      vertex 25 -1.98769 1.90042
      vertex 25 -2.29508 1.51497
    endloop
  endfacet
  facet normal -1 0 0
    outer loop
      vertex 25 -2.826 12.3816
      vertex 25 0 12.7
      vertex 25 -2.49223 10.9192
    endloop
  endfacet
  facet normal -1 -0 0
    outer loop
      vertex 25 0 12.7
      vertex 25 -2.826 12.3816
      vertex 25 -0.63707 14.1857
    endloop
  endfacet
  facet normal -1 0 0
    outer loop
      vertex 25 -0.63707 14.1857
      vertex 25 -2.826 12.3816
      vertex 25 -2.53551 13.9718
    endloop
  endfacet
  facet normal 1 0 0
    outer loop
      vertex 29 4.8595 10.0909
      vertex 29 2.68105 0.611932
      vertex 29 2.74723 0.123378
    endloop
  endfacet
  facet normal 1 0 0
    outer loop
      vertex 29 0.731601 2.6509
      vertex 29 4.8595 10.0909
      vertex 29 2.49223 10.9192
    endloop
  endfacet
  facet normal 1 0 0
    outer loop
      vertex 29 4.8595 10.0909
      vertex 29 2.5287 1.08082
      vertex 29 2.68105 0.611932
    endloop
  endfacet
  facet normal 1 0 0
    outer loop
      vertex 29 4.8595 10.0909
      vertex 29 2.29508 1.51497
      vertex 29 2.5287 1.08082
    endloop
  endfacet
  facet normal 1 0 0
    outer loop
      vertex 29 4.8595 10.0909
      vertex 29 1.98769 1.90042
      vertex 29 2.29508 1.51497
    endloop
  endfacet
  facet normal 1 0 0
    outer loop
      vertex 29 4.8595 10.0909
      vertex 29 1.61641 2.2248
      vertex 29 1.98769 1.90042
    endloop
  endfacet
  facet normal 1 0 0
    outer loop
      vertex 29 4.8595 10.0909
      vertex 29 1.19318 2.47766
      vertex 29 1.61641 2.2248
    endloop
  endfacet
  facet normal 1 0 0
    outer loop
      vertex 29 4.8595 10.0909
      vertex 29 0.731601 2.6509
      vertex 29 1.19318 2.47766
    endloop
  endfacet
  facet normal 1 0 0
    outer loop
      vertex 29 2.49223 10.9192
      vertex 29 0.246508 2.73893
      vertex 29 0.731601 2.6509
    endloop
  endfacet
  facet normal 1 0 0
    outer loop
      vertex 29 0 11.2
      vertex 29 0.246508 2.73893
      vertex 29 2.49223 10.9192
    endloop
  endfacet
  facet normal 1 0 0
    outer loop
      vertex 29 0.246508 2.73893
      vertex 29 0 11.2
      vertex 29 -0.246508 2.73893
    endloop
  endfacet
  facet normal 1 -0 0
    outer loop
      vertex 29 2.826 12.3816
      vertex 29 5.51031 11.4423
      vertex 29 5.58095 13.0573
    endloop
  endfacet
  facet normal 1 0 0
    outer loop
      vertex 29 2.826 12.3816
      vertex 29 5.58095 13.0573
      vertex 29 3.77771 13.6883
    endloop
  endfacet
  facet normal 1 0 0
    outer loop
      vertex 29 5.51031 11.4423
      vertex 29 2.826 12.3816
      vertex 29 4.8595 10.0909
    endloop
  endfacet
  facet normal 1 -0 0
    outer loop
      vertex 29 2.49223 10.9192
      vertex 29 4.8595 10.0909
      vertex 29 2.826 12.3816
    endloop
  endfacet
  facet normal 1 0 0
    outer loop
      vertex 29 4.8595 10.0909
      vertex 29 2.74723 0.123378
      vertex 29 4.8595 -10.0909
    endloop
  endfacet
  facet normal 1 -0 0
    outer loop
      vertex 29 2.72511 -0.369141
      vertex 29 4.8595 -10.0909
      vertex 29 2.74723 0.123378
    endloop
  endfacet
  facet normal 1 -0 0
    outer loop
      vertex 29 2.61541 -0.849796
      vertex 29 4.8595 -10.0909
      vertex 29 2.72511 -0.369141
    endloop
  endfacet
  facet normal 1 -0 0
    outer loop
      vertex 29 2.42164 -1.30314
      vertex 29 4.8595 -10.0909
      vertex 29 2.61541 -0.849796
    endloop
  endfacet
  facet normal 1 -0 0
    outer loop
      vertex 29 2.15004 -1.7146
      vertex 29 4.8595 -10.0909
      vertex 29 2.42164 -1.30314
    endloop
  endfacet
  facet normal 1 0 0
    outer loop
      vertex 29 9.34273 10.6936
      vertex 29 9.92924 7.91832
      vertex 29 10.6936 9.34273
    endloop
  endfacet
  facet normal 1 -0 0
    outer loop
      vertex 29 7.91832 9.92924
      vertex 29 9.92924 7.91832
      vertex 29 9.34273 10.6936
    endloop
  endfacet
  facet normal 1 0 0
    outer loop
      vertex 29 9.92924 7.91832
      vertex 29 7.91832 9.92924
      vertex 29 8.7565 6.98308
    endloop
  endfacet
  facet normal 1 -0 0
    outer loop
      vertex 29 6.98308 8.7565
      vertex 29 8.7565 6.98308
      vertex 29 7.91832 9.92924
    endloop
  endfacet
  facet normal 1 0 0
    outer loop
      vertex 29 8.7565 6.98308
      vertex 29 6.98308 8.7565
      vertex 29 8.7565 -6.98308
    endloop
  endfacet
  facet normal 1 0 0
    outer loop
      vertex 29 6.98308 8.7565
      vertex 29 6.98308 -8.7565
      vertex 29 8.7565 -6.98308
    endloop
  endfacet
  facet normal 1 0 0
    outer loop
      vertex 29 4.8595 -10.0909
      vertex 29 6.98308 -8.7565
      vertex 29 6.98308 8.7565
    endloop
  endfacet
  facet normal 1 0 -0
    outer loop
      vertex 29 5.51031 -11.4423
      vertex 29 6.98308 -8.7565
      vertex 29 4.8595 -10.0909
    endloop
  endfacet
  facet normal 1 0 0
    outer loop
      vertex 29 4.8595 -10.0909
      vertex 29 6.98308 8.7565
      vertex 29 4.8595 10.0909
    endloop
  endfacet
  facet normal 1 0 0
    outer loop
      vertex 29 6.98308 -8.7565
      vertex 29 5.51031 -11.4423
      vertex 29 6.72893 -12.5045
    endloop
  endfacet
  facet normal 1 0 0
    outer loop
      vertex 29 13.0573 5.58095
      vertex 29 12.3816 2.826
      vertex 29 13.6883 3.77771
    endloop
  endfacet
  facet normal 1 -0 0
    outer loop
      vertex 29 11.4423 5.51031
      vertex 29 12.3816 2.826
      vertex 29 13.0573 5.58095
    endloop
  endfacet
  facet normal 1 0 0
    outer loop
      vertex 29 11.4423 5.51031
      vertex 29 10.9192 2.49223
      vertex 29 12.3816 2.826
    endloop
  endfacet
  facet normal 1 -0 0
    outer loop
      vertex 29 10.0909 4.8595
      vertex 29 10.9192 2.49223
      vertex 29 11.4423 5.51031
    endloop
  endfacet
  facet normal 1 0 0
    outer loop
      vertex 29 10.0909 4.8595
      vertex 29 10.9192 -2.49223
      vertex 29 10.9192 2.49223
    endloop
  endfacet
  facet normal 1 0 0
    outer loop
      vertex 29 10.0909 4.8595
      vertex 29 10.0909 -4.8595
      vertex 29 10.9192 -2.49223
    endloop
  endfacet
  facet normal 1 0 0
    outer loop
      vertex 29 8.7565 -6.98308
      vertex 29 10.0909 -4.8595
      vertex 29 10.0909 4.8595
    endloop
  endfacet
  facet normal 1 0 0
    outer loop
      vertex 29 8.7565 -6.98308
      vertex 29 10.0909 4.8595
      vertex 29 8.7565 6.98308
    endloop
  endfacet
  facet normal 1 0 0
    outer loop
      vertex 29 10.0909 -4.8595
      vertex 29 8.7565 -6.98308
      vertex 29 9.92924 -7.91832
    endloop
  endfacet
  facet normal 1 0 0
    outer loop
      vertex 29 12.7 0
      vertex 29 13.9718 -2.53551
      vertex 29 14.1857 -0.63707
    endloop
  endfacet
  facet normal 1 0 0
    outer loop
      vertex 29 12.7 0
      vertex 29 12.3816 -2.826
      vertex 29 13.9718 -2.53551
    endloop
  endfacet
  facet normal 1 -0 0
    outer loop
      vertex 29 11.2 0
      vertex 29 12.3816 -2.826
      vertex 29 12.7 0
    endloop
  endfacet
  facet normal 1 0 0
    outer loop
      vertex 29 11.2 0
      vertex 29 10.9192 -2.49223
      vertex 29 12.3816 -2.826
    endloop
  endfacet
  facet normal 1 0 0
    outer loop
      vertex 29 10.9192 -2.49223
      vertex 29 11.2 0
      vertex 29 10.9192 2.49223
    endloop
  endfacet
  facet normal 1 0 0
    outer loop
      vertex 29 11.4423 -5.51031
      vertex 29 11.488 -8.34654
      vertex 29 12.5045 -6.72893
    endloop
  endfacet
  facet normal 1 0 0
    outer loop
      vertex 29 9.92924 -7.91832
      vertex 29 11.4423 -5.51031
      vertex 29 10.0909 -4.8595
    endloop
  endfacet
  facet normal 1 0 0
    outer loop
      vertex 29 11.4423 -5.51031
      vertex 29 9.92924 -7.91832
      vertex 29 11.488 -8.34654
    endloop
  endfacet
  facet normal 1 0 0
    outer loop
      vertex 29 6.72893 -12.5045
      vertex 29 7.91832 -9.92924
      vertex 29 6.98308 -8.7565
    endloop
  endfacet
  facet normal 1 0 0
    outer loop
      vertex 29 7.91832 -9.92924
      vertex 29 6.72893 -12.5045
      vertex 29 8.34654 -11.488
    endloop
  endfacet
  facet normal 1 0 0
    outer loop
      vertex 29 0 -12.7
      vertex 29 2.826 -12.3816
      vertex 29 2.49223 -10.9192
    endloop
  endfacet
  facet normal 1 -0 0
    outer loop
      vertex 29 1.80933 -2.07095
      vertex 29 4.8595 -10.0909
      vertex 29 2.15004 -1.7146
    endloop
  endfacet
  facet normal 1 -0 0
    outer loop
      vertex 29 1.41047 -2.36073
      vertex 29 4.8595 -10.0909
      vertex 29 1.80933 -2.07095
    endloop
  endfacet
  facet normal 1 -0 0
    outer loop
      vertex 29 1.12128 -2.5
      vertex 29 4.8595 -10.0909
      vertex 29 1.41047 -2.36073
    endloop
  endfacet
  facet normal 1 0 0
    outer loop
      vertex 29 4.8595 -10.0909
      vertex 29 1.12128 -2.5
      vertex 29 2.49223 -10.9192
    endloop
  endfacet
  facet normal 1 0 0
    outer loop
      vertex 29 2.49223 -10.9192
      vertex 29 1.12128 -2.5
      vertex 29 0 -11.2
    endloop
  endfacet
  facet normal 1 0 0
    outer loop
      vertex 29 0 -12.7
      vertex 29 2.49223 -10.9192
      vertex 29 0 -11.2
    endloop
  endfacet
  facet normal 1 0 0
    outer loop
      vertex 29 2.826 -12.3816
      vertex 29 0 -12.7
      vertex 29 2.53551 -13.9718
    endloop
  endfacet
  facet normal 1 -0 0
    outer loop
      vertex 29 -1.12128 -2.5
      vertex 29 0 -11.2
      vertex 29 1.12128 -2.5
    endloop
  endfacet
  facet normal 1 0 0
    outer loop
      vertex 29 -4.8595 -10.0909
      vertex 29 -1.12128 -2.5
      vertex 29 -1.41047 -2.36073
    endloop
  endfacet
  facet normal 1 0 0
    outer loop
      vertex 29 -4.8595 -10.0909
      vertex 29 -1.41047 -2.36073
      vertex 29 -1.80933 -2.07095
    endloop
  endfacet
  facet normal 1 0 0
    outer loop
      vertex 29 -4.8595 -10.0909
      vertex 29 -1.80933 -2.07095
      vertex 29 -2.15004 -1.7146
    endloop
  endfacet
  facet normal 1 0 0
    outer loop
      vertex 29 -4.8595 -10.0909
      vertex 29 -2.15004 -1.7146
      vertex 29 -2.42164 -1.30314
    endloop
  endfacet
  facet normal 1 0 0
    outer loop
      vertex 29 -1.12128 -2.5
      vertex 29 -2.49223 -10.9192
      vertex 29 0 -11.2
    endloop
  endfacet
  facet normal 1 0 0
    outer loop
      vertex 29 -4.8595 -10.0909
      vertex 29 -2.42164 -1.30314
      vertex 29 -2.61541 -0.849796
    endloop
  endfacet
  facet normal 1 0 0
    outer loop
      vertex 29 -4.8595 -10.0909
      vertex 29 -2.61541 -0.849796
      vertex 29 -2.72511 -0.369141
    endloop
  endfacet
  facet normal 1 0 0
    outer loop
      vertex 29 -4.8595 -10.0909
      vertex 29 -2.72511 -0.369141
      vertex 29 -2.74723 0.123378
    endloop
  endfacet
  facet normal 1 0 0
    outer loop
      vertex 29 -1.12128 -2.5
      vertex 29 -4.8595 -10.0909
      vertex 29 -2.49223 -10.9192
    endloop
  endfacet
  facet normal 1 0 0
    outer loop
      vertex 29 -10.9192 2.49223
      vertex 29 -11.2 0
      vertex 29 -10.9192 -2.49223
    endloop
  endfacet
  facet normal 1 0 0
    outer loop
      vertex 29 -12.3816 2.826
      vertex 29 -11.2 0
      vertex 29 -10.9192 2.49223
    endloop
  endfacet
  facet normal 1 0 0
    outer loop
      vertex 29 -12.3816 2.826
      vertex 29 -12.7 0
      vertex 29 -11.2 0
    endloop
  endfacet
  facet normal 1 -0 0
    outer loop
      vertex 29 -13.9718 2.53551
      vertex 29 -12.7 0
      vertex 29 -12.3816 2.826
    endloop
  endfacet
  facet normal 1 0 0
    outer loop
      vertex 29 -12.7 0
      vertex 29 -13.9718 2.53551
      vertex 29 -14.1857 0.63707
    endloop
  endfacet
  facet normal 1 0 0
    outer loop
      vertex 29 -9.92924 7.91832
      vertex 29 -11.4423 5.51031
      vertex 29 -10.0909 4.8595
    endloop
  endfacet
  facet normal 1 0 0
    outer loop
      vertex 29 -11.488 8.34654
      vertex 29 -11.4423 5.51031
      vertex 29 -9.92924 7.91832
    endloop
  endfacet
  facet normal 1 0 0
    outer loop
      vertex 29 -11.4423 5.51031
      vertex 29 -11.488 8.34654
      vertex 29 -12.5045 6.72893
    endloop
  endfacet
  facet normal 1 0 0
    outer loop
      vertex 29 -10.0909 4.8595
      vertex 29 -8.7565 6.98308
      vertex 29 -9.92924 7.91832
    endloop
  endfacet
  facet normal 1 0 0
    outer loop
      vertex 29 -8.7565 6.98308
      vertex 29 -10.0909 4.8595
      vertex 29 -8.7565 -6.98308
    endloop
  endfacet
  facet normal 1 0 0
    outer loop
      vertex 29 -10.0909 4.8595
      vertex 29 -10.0909 -4.8595
      vertex 29 -8.7565 -6.98308
    endloop
  endfacet
  facet normal 1 -0 0
    outer loop
      vertex 29 -10.9192 2.49223
      vertex 29 -10.0909 -4.8595
      vertex 29 -10.0909 4.8595
    endloop
  endfacet
  facet normal 1 -0 0
    outer loop
      vertex 29 -10.9192 -2.49223
      vertex 29 -10.0909 -4.8595
      vertex 29 -10.9192 2.49223
    endloop
  endfacet
  facet normal 1 0 0
    outer loop
      vertex 29 -10.9192 -2.49223
      vertex 29 -11.4423 -5.51031
      vertex 29 -10.0909 -4.8595
    endloop
  endfacet
  facet normal 1 -0 0
    outer loop
      vertex 29 -12.3816 -2.826
      vertex 29 -11.4423 -5.51031
      vertex 29 -10.9192 -2.49223
    endloop
  endfacet
  facet normal 1 0 0
    outer loop
      vertex 29 -12.3816 -2.826
      vertex 29 -13.0573 -5.58095
      vertex 29 -11.4423 -5.51031
    endloop
  endfacet
  facet normal 1 0 -0
    outer loop
      vertex 29 -13.0573 -5.58095
      vertex 29 -12.3816 -2.826
      vertex 29 -13.6883 -3.77771
    endloop
  endfacet
  facet normal 1 0 0
    outer loop
      vertex 29 -5.51031 11.4423
      vertex 29 -7.91832 9.92924
      vertex 29 -6.98308 8.7565
    endloop
  endfacet
  facet normal 1 0 -0
    outer loop
      vertex 29 -7.91832 9.92924
      vertex 29 -6.72893 12.5045
      vertex 29 -8.34654 11.488
    endloop
  endfacet
  facet normal 1 0 0
    outer loop
      vertex 29 -6.98308 8.7565
      vertex 29 -4.8595 10.0909
      vertex 29 -5.51031 11.4423
    endloop
  endfacet
  facet normal 1 0 0
    outer loop
      vertex 29 -7.91832 9.92924
      vertex 29 -5.51031 11.4423
      vertex 29 -6.72893 12.5045
    endloop
  endfacet
  facet normal 1 0 0
    outer loop
      vertex 29 -4.8595 10.0909
      vertex 29 -6.98308 8.7565
      vertex 29 -4.8595 -10.0909
    endloop
  endfacet
  facet normal 1 0 0
    outer loop
      vertex 29 -6.98308 8.7565
      vertex 29 -6.98308 -8.7565
      vertex 29 -4.8595 -10.0909
    endloop
  endfacet
  facet normal 1 -0 0
    outer loop
      vertex 29 -8.7565 -6.98308
      vertex 29 -6.98308 -8.7565
      vertex 29 -6.98308 8.7565
    endloop
  endfacet
  facet normal 1 0 0
    outer loop
      vertex 29 -8.7565 -6.98308
      vertex 29 -6.98308 8.7565
      vertex 29 -8.7565 6.98308
    endloop
  endfacet
  facet normal 1 0 0
    outer loop
      vertex 29 -6.98308 -8.7565
      vertex 29 -8.7565 -6.98308
      vertex 29 -7.91832 -9.92924
    endloop
  endfacet
  facet normal 1 -0 0
    outer loop
      vertex 29 -9.92924 -7.91832
      vertex 29 -7.91832 -9.92924
      vertex 29 -8.7565 -6.98308
    endloop
  endfacet
  facet normal 1 0 0
    outer loop
      vertex 29 -7.91832 -9.92924
      vertex 29 -9.92924 -7.91832
      vertex 29 -9.34273 -10.6936
    endloop
  endfacet
  facet normal 1 0 0
    outer loop
      vertex 29 -9.34273 -10.6936
      vertex 29 -9.92924 -7.91832
      vertex 29 -10.6936 -9.34273
    endloop
  endfacet
  facet normal 1 0 0
    outer loop
      vertex 29 -2.49223 10.9192
      vertex 29 0 11.2
      vertex 29 0 12.7
    endloop
  endfacet
  facet normal 1 0 0
    outer loop
      vertex 29 -2.826 12.3816
      vertex 29 0 12.7
      vertex 29 -0.63707 14.1857
    endloop
  endfacet
  facet normal 1 0 0
    outer loop
      vertex 29 0 11.2
      vertex 29 -2.49223 10.9192
      vertex 29 -0.246508 2.73893
    endloop
  endfacet
  facet normal 1 0 0
    outer loop
      vertex 29 -0.246508 2.73893
      vertex 29 -2.49223 10.9192
      vertex 29 -0.731601 2.6509
    endloop
  endfacet
  facet normal 1 -0 0
    outer loop
      vertex 29 -4.8595 10.0909
      vertex 29 -0.731601 2.6509
      vertex 29 -2.49223 10.9192
    endloop
  endfacet
  facet normal 1 0 0
    outer loop
      vertex 29 -0.731601 2.6509
      vertex 29 -4.8595 10.0909
      vertex 29 -1.19318 2.47766
    endloop
  endfacet
  facet normal 1 0 0
    outer loop
      vertex 29 -1.19318 2.47766
      vertex 29 -4.8595 10.0909
      vertex 29 -1.61641 2.2248
    endloop
  endfacet
  facet normal 1 0 0
    outer loop
      vertex 29 -1.61641 2.2248
      vertex 29 -4.8595 10.0909
      vertex 29 -1.98769 1.90042
    endloop
  endfacet
  facet normal 1 0 0
    outer loop
      vertex 29 -2.826 12.3816
      vertex 29 -0.63707 14.1857
      vertex 29 -2.53551 13.9718
    endloop
  endfacet
  facet normal 1 0 0
    outer loop
      vertex 29 0 12.7
      vertex 29 -2.826 12.3816
      vertex 29 -2.49223 10.9192
    endloop
  endfacet
  facet normal 1 0 0
    outer loop
      vertex 29 2.53551 -13.9718
      vertex 29 0 -12.7
      vertex 29 0.63707 -14.1857
    endloop
  endfacet
  facet normal 1 0 0
    outer loop
      vertex 29 -1.98769 1.90042
      vertex 29 -4.8595 10.0909
      vertex 29 -2.29508 1.51497
    endloop
  endfacet
  facet normal 1 0 0
    outer loop
      vertex 29 -2.29508 1.51497
      vertex 29 -4.8595 10.0909
      vertex 29 -2.5287 1.08082
    endloop
  endfacet
  facet normal 1 0 0
    outer loop
      vertex 29 -2.5287 1.08082
      vertex 29 -4.8595 10.0909
      vertex 29 -2.68105 0.611932
    endloop
  endfacet
  facet normal 1 0 0
    outer loop
      vertex 29 -2.49223 -10.9192
      vertex 29 -4.8595 -10.0909
      vertex 29 -2.826 -12.3816
    endloop
  endfacet
  facet normal 1 0 0
    outer loop
      vertex 29 -2.68105 0.611932
      vertex 29 -4.8595 10.0909
      vertex 29 -2.74723 0.123378
    endloop
  endfacet
  facet normal 1 0 0
    outer loop
      vertex 29 -2.74723 0.123378
      vertex 29 -4.8595 10.0909
      vertex 29 -4.8595 -10.0909
    endloop
  endfacet
  facet normal 1 -0 0
    outer loop
      vertex 29 -5.51031 -11.4423
      vertex 29 -2.826 -12.3816
      vertex 29 -4.8595 -10.0909
    endloop
  endfacet
  facet normal 1 0 0
    outer loop
      vertex 29 -2.826 -12.3816
      vertex 29 -5.51031 -11.4423
      vertex 29 -3.77771 -13.6883
    endloop
  endfacet
  facet normal 1 0 0
    outer loop
      vertex 29 -3.77771 -13.6883
      vertex 29 -5.51031 -11.4423
      vertex 29 -5.58095 -13.0573
    endloop
  endfacet
  facet normal 0 0 -1
    outer loop
      vertex 25 -12.7 0
      vertex 29 -11.2 0
      vertex 29 -12.7 0
    endloop
  endfacet
  facet normal -0 0 -1
    outer loop
      vertex 29 -11.2 0
      vertex 25 -12.7 0
      vertex 25 -11.2 0
    endloop
  endfacet
  facet normal 0 -0.993713 -0.111962
    outer loop
      vertex 25 -10.9192 -2.49223
      vertex 29 -11.2 0
      vertex 25 -11.2 0
    endloop
  endfacet
  facet normal 0 -0.993713 -0.111962
    outer loop
      vertex 29 -11.2 0
      vertex 25 -10.9192 -2.49223
      vertex 29 -10.9192 -2.49223
    endloop
  endfacet
  facet normal 0 -0.222513 0.97493
    outer loop
      vertex 25 -10.9192 -2.49223
      vertex 29 -12.3816 -2.826
      vertex 29 -10.9192 -2.49223
    endloop
  endfacet
  facet normal 0 -0.222513 0.97493
    outer loop
      vertex 29 -12.3816 -2.826
      vertex 25 -10.9192 -2.49223
      vertex 25 -12.3816 -2.826
    endloop
  endfacet
  facet normal 0 -0.588731 0.808329
    outer loop
      vertex 25 -12.3816 -2.826
      vertex 29 -13.6883 -3.77771
      vertex 29 -12.3816 -2.826
    endloop
  endfacet
  facet normal 0 -0.588731 0.808329
    outer loop
      vertex 29 -13.6883 -3.77771
      vertex 25 -12.3816 -2.826
      vertex 25 -13.6883 -3.77771
    endloop
  endfacet
  facet normal 0 -0.94388 -0.330288
    outer loop
      vertex 25 -13.0573 -5.58095
      vertex 29 -13.6883 -3.77771
      vertex 25 -13.6883 -3.77771
    endloop
  endfacet
  facet normal 0 -0.94388 -0.330288
    outer loop
      vertex 29 -13.6883 -3.77771
      vertex 25 -13.0573 -5.58095
      vertex 29 -13.0573 -5.58095
    endloop
  endfacet
  facet normal 0 0.0436982 -0.999045
    outer loop
      vertex 25 -13.0573 -5.58095
      vertex 29 -11.4423 -5.51031
      vertex 29 -13.0573 -5.58095
    endloop
  endfacet
  facet normal 0 0.0436982 -0.999045
    outer loop
      vertex 29 -11.4423 -5.51031
      vertex 25 -13.0573 -5.58095
      vertex 25 -11.4423 -5.51031
    endloop
  endfacet
  facet normal 0 0.433889 -0.900966
    outer loop
      vertex 25 -11.4423 -5.51031
      vertex 29 -10.0909 -4.8595
      vertex 29 -11.4423 -5.51031
    endloop
  endfacet
  facet normal 0 0.433889 -0.900966
    outer loop
      vertex 29 -10.0909 -4.8595
      vertex 25 -11.4423 -5.51031
      vertex 25 -10.0909 -4.8595
    endloop
  endfacet
  facet normal 0 -0.846712 -0.532051
    outer loop
      vertex 25 -8.7565 -6.98308
      vertex 29 -10.0909 -4.8595
      vertex 25 -10.0909 -4.8595
    endloop
  endfacet
  facet normal 0 -0.846712 -0.532051
    outer loop
      vertex 29 -10.0909 -4.8595
      vertex 25 -8.7565 -6.98308
      vertex 29 -8.7565 -6.98308
    endloop
  endfacet
  facet normal 0 -0.623494 0.781828
    outer loop
      vertex 25 -8.7565 -6.98308
      vertex 29 -9.92924 -7.91832
      vertex 29 -8.7565 -6.98308
    endloop
  endfacet
  facet normal 0 -0.623494 0.781828
    outer loop
      vertex 29 -9.92924 -7.91832
      vertex 25 -8.7565 -6.98308
      vertex 25 -9.92924 -7.91832
    endloop
  endfacet
  facet normal 0 -0.881149 0.472838
    outer loop
      vertex 25 -10.6936 -9.34273
      vertex 29 -9.92924 -7.91832
      vertex 25 -9.92924 -7.91832
    endloop
  endfacet
  facet normal 0 -0.881149 0.472838
    outer loop
      vertex 29 -9.92924 -7.91832
      vertex 25 -10.6936 -9.34273
      vertex 29 -10.6936 -9.34273
    endloop
  endfacet
  facet normal 0 -0.707107 -0.707107
    outer loop
      vertex 25 -9.34273 -10.6936
      vertex 29 -10.6936 -9.34273
      vertex 25 -10.6936 -9.34273
    endloop
  endfacet
  facet normal 0 -0.707107 -0.707107
    outer loop
      vertex 29 -10.6936 -9.34273
      vertex 25 -9.34273 -10.6936
      vertex 29 -9.34273 -10.6936
    endloop
  endfacet
  facet normal 0 0.472838 -0.881149
    outer loop
      vertex 25 -9.34273 -10.6936
      vertex 29 -7.91832 -9.92924
      vertex 29 -9.34273 -10.6936
    endloop
  endfacet
  facet normal 0 0.472838 -0.881149
    outer loop
      vertex 29 -7.91832 -9.92924
      vertex 25 -9.34273 -10.6936
      vertex 25 -7.91832 -9.92924
    endloop
  endfacet
  facet normal 0 0.781828 -0.623494
    outer loop
      vertex 29 -7.91832 -9.92924
      vertex 25 -6.98308 -8.7565
      vertex 29 -6.98308 -8.7565
    endloop
  endfacet
  facet normal 0 0.781828 -0.623494
    outer loop
      vertex 25 -6.98308 -8.7565
      vertex 29 -7.91832 -9.92924
      vertex 25 -7.91832 -9.92924
    endloop
  endfacet
  facet normal 0 -0.532051 -0.846712
    outer loop
      vertex 25 -6.98308 -8.7565
      vertex 29 -4.8595 -10.0909
      vertex 29 -6.98308 -8.7565
    endloop
  endfacet
  facet normal -0 -0.532051 -0.846712
    outer loop
      vertex 29 -4.8595 -10.0909
      vertex 25 -6.98308 -8.7565
      vertex 25 -4.8595 -10.0909
    endloop
  endfacet
  facet normal 0 -0.900966 0.433889
    outer loop
      vertex 25 -5.51031 -11.4423
      vertex 29 -4.8595 -10.0909
      vertex 25 -4.8595 -10.0909
    endloop
  endfacet
  facet normal 0 -0.900966 0.433889
    outer loop
      vertex 29 -4.8595 -10.0909
      vertex 25 -5.51031 -11.4423
      vertex 29 -5.51031 -11.4423
    endloop
  endfacet
  facet normal 0 -0.999045 0.0436982
    outer loop
      vertex 25 -5.58095 -13.0573
      vertex 29 -5.51031 -11.4423
      vertex 25 -5.51031 -11.4423
    endloop
  endfacet
  facet normal 0 -0.999045 0.0436982
    outer loop
      vertex 29 -5.51031 -11.4423
      vertex 25 -5.58095 -13.0573
      vertex 29 -5.58095 -13.0573
    endloop
  endfacet
  facet normal 0 -0.330288 -0.94388
    outer loop
      vertex 25 -5.58095 -13.0573
      vertex 29 -3.77771 -13.6883
      vertex 29 -5.58095 -13.0573
    endloop
  endfacet
  facet normal -0 -0.330288 -0.94388
    outer loop
      vertex 29 -3.77771 -13.6883
      vertex 25 -5.58095 -13.0573
      vertex 25 -3.77771 -13.6883
    endloop
  endfacet
  facet normal 0 0.808329 -0.588731
    outer loop
      vertex 29 -3.77771 -13.6883
      vertex 25 -2.826 -12.3816
      vertex 29 -2.826 -12.3816
    endloop
  endfacet
  facet normal 0 0.808329 -0.588731
    outer loop
      vertex 25 -2.826 -12.3816
      vertex 29 -3.77771 -13.6883
      vertex 25 -3.77771 -13.6883
    endloop
  endfacet
  facet normal 0 0.97493 -0.222513
    outer loop
      vertex 29 -2.826 -12.3816
      vertex 25 -2.49223 -10.9192
      vertex 29 -2.49223 -10.9192
    endloop
  endfacet
  facet normal 0 0.97493 -0.222513
    outer loop
      vertex 25 -2.49223 -10.9192
      vertex 29 -2.826 -12.3816
      vertex 25 -2.826 -12.3816
    endloop
  endfacet
  facet normal 0 -0.111962 -0.993713
    outer loop
      vertex 25 -2.49223 -10.9192
      vertex 29 0 -11.2
      vertex 29 -2.49223 -10.9192
    endloop
  endfacet
  facet normal -0 -0.111962 -0.993713
    outer loop
      vertex 29 0 -11.2
      vertex 25 -2.49223 -10.9192
      vertex 25 0 -11.2
    endloop
  endfacet
  facet normal 0 -1 0
    outer loop
      vertex 25 0 -12.7
      vertex 29 0 -11.2
      vertex 25 0 -11.2
    endloop
  endfacet
  facet normal 0 -1 -0
    outer loop
      vertex 29 0 -11.2
      vertex 25 0 -12.7
      vertex 29 0 -12.7
    endloop
  endfacet
  facet normal 0 -0.919069 -0.394098
    outer loop
      vertex 25 0.63707 -14.1857
      vertex 29 0 -12.7
      vertex 25 0 -12.7
    endloop
  endfacet
  facet normal 0 -0.919069 -0.394098
    outer loop
      vertex 29 0 -12.7
      vertex 25 0.63707 -14.1857
      vertex 29 0.63707 -14.1857
    endloop
  endfacet
  facet normal 0 0.111963 -0.993712
    outer loop
      vertex 25 0.63707 -14.1857
      vertex 29 2.53551 -13.9718
      vertex 29 0.63707 -14.1857
    endloop
  endfacet
  facet normal 0 0.111963 -0.993712
    outer loop
      vertex 29 2.53551 -13.9718
      vertex 25 0.63707 -14.1857
      vertex 25 2.53551 -13.9718
    endloop
  endfacet
  facet normal 0 0.983721 -0.179701
    outer loop
      vertex 29 2.53551 -13.9718
      vertex 25 2.826 -12.3816
      vertex 29 2.826 -12.3816
    endloop
  endfacet
  facet normal 0 0.983721 -0.179701
    outer loop
      vertex 25 2.826 -12.3816
      vertex 29 2.53551 -13.9718
      vertex 25 2.53551 -13.9718
    endloop
  endfacet
  facet normal 0 0.97493 0.222513
    outer loop
      vertex 29 2.826 -12.3816
      vertex 25 2.49223 -10.9192
      vertex 29 2.49223 -10.9192
    endloop
  endfacet
  facet normal 0 0.97493 0.222513
    outer loop
      vertex 25 2.49223 -10.9192
      vertex 29 2.826 -12.3816
      vertex 25 2.826 -12.3816
    endloop
  endfacet
  facet normal 0 0.330264 -0.943889
    outer loop
      vertex 25 2.49223 -10.9192
      vertex 29 4.8595 -10.0909
      vertex 29 2.49223 -10.9192
    endloop
  endfacet
  facet normal 0 0.330264 -0.943889
    outer loop
      vertex 29 4.8595 -10.0909
      vertex 25 2.49223 -10.9192
      vertex 25 4.8595 -10.0909
    endloop
  endfacet
  facet normal 0 -0.900966 -0.433889
    outer loop
      vertex 25 5.51031 -11.4423
      vertex 29 4.8595 -10.0909
      vertex 25 4.8595 -10.0909
    endloop
  endfacet
  facet normal 0 -0.900966 -0.433889
    outer loop
      vertex 29 4.8595 -10.0909
      vertex 25 5.51031 -11.4423
      vertex 29 5.51031 -11.4423
    endloop
  endfacet
  facet normal 0 -0.65707 -0.75383
    outer loop
      vertex 25 5.51031 -11.4423
      vertex 29 6.72893 -12.5045
      vertex 29 5.51031 -11.4423
    endloop
  endfacet
  facet normal -0 -0.65707 -0.75383
    outer loop
      vertex 29 6.72893 -12.5045
      vertex 25 5.51031 -11.4423
      vertex 25 6.72893 -12.5045
    endloop
  endfacet
  facet normal 0 0.532065 -0.846703
    outer loop
      vertex 25 6.72893 -12.5045
      vertex 29 8.34654 -11.488
      vertex 29 6.72893 -12.5045
    endloop
  endfacet
  facet normal 0 0.532065 -0.846703
    outer loop
      vertex 29 8.34654 -11.488
      vertex 25 6.72893 -12.5045
      vertex 25 8.34654 -11.488
    endloop
  endfacet
  facet normal 0 0.964275 0.264904
    outer loop
      vertex 29 8.34654 -11.488
      vertex 25 7.91832 -9.92924
      vertex 29 7.91832 -9.92924
    endloop
  endfacet
  facet normal 0 0.964275 0.264904
    outer loop
      vertex 25 7.91832 -9.92924
      vertex 29 8.34654 -11.488
      vertex 25 8.34654 -11.488
    endloop
  endfacet
  facet normal 0 0.781828 0.623494
    outer loop
      vertex 29 7.91832 -9.92924
      vertex 25 6.98308 -8.7565
      vertex 29 6.98308 -8.7565
    endloop
  endfacet
  facet normal 0 0.781828 0.623494
    outer loop
      vertex 25 6.98308 -8.7565
      vertex 29 7.91832 -9.92924
      vertex 25 7.91832 -9.92924
    endloop
  endfacet
  facet normal 0 0.707107 -0.707107
    outer loop
      vertex 29 6.98308 -8.7565
      vertex 25 8.7565 -6.98308
      vertex 29 8.7565 -6.98308
    endloop
  endfacet
  facet normal 0 0.707107 -0.707107
    outer loop
      vertex 25 8.7565 -6.98308
      vertex 29 6.98308 -8.7565
      vertex 25 6.98308 -8.7565
    endloop
  endfacet
  facet normal 0 -0.623494 -0.781828
    outer loop
      vertex 25 8.7565 -6.98308
      vertex 29 9.92924 -7.91832
      vertex 29 8.7565 -6.98308
    endloop
  endfacet
  facet normal -0 -0.623494 -0.781828
    outer loop
      vertex 29 9.92924 -7.91832
      vertex 25 8.7565 -6.98308
      vertex 25 9.92924 -7.91832
    endloop
  endfacet
  facet normal 0 -0.264904 -0.964275
    outer loop
      vertex 25 9.92924 -7.91832
      vertex 29 11.488 -8.34654
      vertex 29 9.92924 -7.91832
    endloop
  endfacet
  facet normal -0 -0.264904 -0.964275
    outer loop
      vertex 29 11.488 -8.34654
      vertex 25 9.92924 -7.91832
      vertex 25 11.488 -8.34654
    endloop
  endfacet
  facet normal 0 0.846703 -0.532065
    outer loop
      vertex 29 11.488 -8.34654
      vertex 25 12.5045 -6.72893
      vertex 29 12.5045 -6.72893
    endloop
  endfacet
  facet normal 0 0.846703 -0.532065
    outer loop
      vertex 25 12.5045 -6.72893
      vertex 29 11.488 -8.34654
      vertex 25 11.488 -8.34654
    endloop
  endfacet
  facet normal 0 0.75383 0.65707
    outer loop
      vertex 29 12.5045 -6.72893
      vertex 25 11.4423 -5.51031
      vertex 29 11.4423 -5.51031
    endloop
  endfacet
  facet normal 0 0.75383 0.65707
    outer loop
      vertex 25 11.4423 -5.51031
      vertex 29 12.5045 -6.72893
      vertex 25 12.5045 -6.72893
    endloop
  endfacet
  facet normal -0 0.433889 0.900966
    outer loop
      vertex 25 11.4423 -5.51031
      vertex 29 10.0909 -4.8595
      vertex 29 11.4423 -5.51031
    endloop
  endfacet
  facet normal 0 0.433889 0.900966
    outer loop
      vertex 29 10.0909 -4.8595
      vertex 25 11.4423 -5.51031
      vertex 25 10.0909 -4.8595
    endloop
  endfacet
  facet normal 0 0.943889 -0.330264
    outer loop
      vertex 29 10.0909 -4.8595
      vertex 25 10.9192 -2.49223
      vertex 29 10.9192 -2.49223
    endloop
  endfacet
  facet normal 0 0.943889 -0.330264
    outer loop
      vertex 25 10.9192 -2.49223
      vertex 29 10.0909 -4.8595
      vertex 25 10.0909 -4.8595
    endloop
  endfacet
  facet normal 0 -0.222513 -0.97493
    outer loop
      vertex 25 10.9192 -2.49223
      vertex 29 12.3816 -2.826
      vertex 29 10.9192 -2.49223
    endloop
  endfacet
  facet normal -0 -0.222513 -0.97493
    outer loop
      vertex 29 12.3816 -2.826
      vertex 25 10.9192 -2.49223
      vertex 25 12.3816 -2.826
    endloop
  endfacet
  facet normal 0 0.179701 -0.983721
    outer loop
      vertex 25 12.3816 -2.826
      vertex 29 13.9718 -2.53551
      vertex 29 12.3816 -2.826
    endloop
  endfacet
  facet normal 0 0.179701 -0.983721
    outer loop
      vertex 29 13.9718 -2.53551
      vertex 25 12.3816 -2.826
      vertex 25 13.9718 -2.53551
    endloop
  endfacet
  facet normal 0 0.993712 -0.111963
    outer loop
      vertex 29 13.9718 -2.53551
      vertex 25 14.1857 -0.63707
      vertex 29 14.1857 -0.63707
    endloop
  endfacet
  facet normal 0 0.993712 -0.111963
    outer loop
      vertex 25 14.1857 -0.63707
      vertex 29 13.9718 -2.53551
      vertex 25 13.9718 -2.53551
    endloop
  endfacet
  facet normal -0 0.394098 0.919069
    outer loop
      vertex 25 14.1857 -0.63707
      vertex 29 12.7 0
      vertex 29 14.1857 -0.63707
    endloop
  endfacet
  facet normal 0 0.394098 0.919069
    outer loop
      vertex 29 12.7 0
      vertex 25 14.1857 -0.63707
      vertex 25 12.7 0
    endloop
  endfacet
  facet normal -0 0 1
    outer loop
      vertex 25 12.7 0
      vertex 29 11.2 0
      vertex 29 12.7 0
    endloop
  endfacet
  facet normal 0 0 1
    outer loop
      vertex 29 11.2 0
      vertex 25 12.7 0
      vertex 25 11.2 0
    endloop
  endfacet
  facet normal 0 0.993713 0.111962
    outer loop
      vertex 29 11.2 0
      vertex 25 10.9192 2.49223
      vertex 29 10.9192 2.49223
    endloop
  endfacet
  facet normal 0 0.993713 0.111962
    outer loop
      vertex 25 10.9192 2.49223
      vertex 29 11.2 0
      vertex 25 11.2 0
    endloop
  endfacet
  facet normal 0 0.222513 -0.97493
    outer loop
      vertex 25 10.9192 2.49223
      vertex 29 12.3816 2.826
      vertex 29 10.9192 2.49223
    endloop
  endfacet
  facet normal 0 0.222513 -0.97493
    outer loop
      vertex 29 12.3816 2.826
      vertex 25 10.9192 2.49223
      vertex 25 12.3816 2.826
    endloop
  endfacet
  facet normal 0 0.588731 -0.808329
    outer loop
      vertex 25 12.3816 2.826
      vertex 29 13.6883 3.77771
      vertex 29 12.3816 2.826
    endloop
  endfacet
  facet normal 0 0.588731 -0.808329
    outer loop
      vertex 29 13.6883 3.77771
      vertex 25 12.3816 2.826
      vertex 25 13.6883 3.77771
    endloop
  endfacet
  facet normal 0 0.94388 0.330288
    outer loop
      vertex 29 13.6883 3.77771
      vertex 25 13.0573 5.58095
      vertex 29 13.0573 5.58095
    endloop
  endfacet
  facet normal 0 0.94388 0.330288
    outer loop
      vertex 25 13.0573 5.58095
      vertex 29 13.6883 3.77771
      vertex 25 13.6883 3.77771
    endloop
  endfacet
  facet normal 0 -0.0436982 0.999045
    outer loop
      vertex 25 13.0573 5.58095
      vertex 29 11.4423 5.51031
      vertex 29 13.0573 5.58095
    endloop
  endfacet
  facet normal 0 -0.0436982 0.999045
    outer loop
      vertex 29 11.4423 5.51031
      vertex 25 13.0573 5.58095
      vertex 25 11.4423 5.51031
    endloop
  endfacet
  facet normal 0 -0.433889 0.900966
    outer loop
      vertex 25 11.4423 5.51031
      vertex 29 10.0909 4.8595
      vertex 29 11.4423 5.51031
    endloop
  endfacet
  facet normal 0 -0.433889 0.900966
    outer loop
      vertex 29 10.0909 4.8595
      vertex 25 11.4423 5.51031
      vertex 25 10.0909 4.8595
    endloop
  endfacet
  facet normal 0 0.846712 0.532051
    outer loop
      vertex 29 10.0909 4.8595
      vertex 25 8.7565 6.98308
      vertex 29 8.7565 6.98308
    endloop
  endfacet
  facet normal 0 0.846712 0.532051
    outer loop
      vertex 25 8.7565 6.98308
      vertex 29 10.0909 4.8595
      vertex 25 10.0909 4.8595
    endloop
  endfacet
  facet normal 0 0.623494 -0.781828
    outer loop
      vertex 25 8.7565 6.98308
      vertex 29 9.92924 7.91832
      vertex 29 8.7565 6.98308
    endloop
  endfacet
  facet normal 0 0.623494 -0.781828
    outer loop
      vertex 29 9.92924 7.91832
      vertex 25 8.7565 6.98308
      vertex 25 9.92924 7.91832
    endloop
  endfacet
  facet normal 0 0.881149 -0.472838
    outer loop
      vertex 29 9.92924 7.91832
      vertex 25 10.6936 9.34273
      vertex 29 10.6936 9.34273
    endloop
  endfacet
  facet normal 0 0.881149 -0.472838
    outer loop
      vertex 25 10.6936 9.34273
      vertex 29 9.92924 7.91832
      vertex 25 9.92924 7.91832
    endloop
  endfacet
  facet normal 0 0.707107 0.707107
    outer loop
      vertex 29 10.6936 9.34273
      vertex 25 9.34273 10.6936
      vertex 29 9.34273 10.6936
    endloop
  endfacet
  facet normal 0 0.707107 0.707107
    outer loop
      vertex 25 9.34273 10.6936
      vertex 29 10.6936 9.34273
      vertex 25 10.6936 9.34273
    endloop
  endfacet
  facet normal 0 -0.472838 0.881149
    outer loop
      vertex 25 9.34273 10.6936
      vertex 29 7.91832 9.92924
      vertex 29 9.34273 10.6936
    endloop
  endfacet
  facet normal 0 -0.472838 0.881149
    outer loop
      vertex 29 7.91832 9.92924
      vertex 25 9.34273 10.6936
      vertex 25 7.91832 9.92924
    endloop
  endfacet
  facet normal 0 -0.781828 0.623494
    outer loop
      vertex 25 6.98308 8.7565
      vertex 29 7.91832 9.92924
      vertex 25 7.91832 9.92924
    endloop
  endfacet
  facet normal 0 -0.781828 0.623494
    outer loop
      vertex 29 7.91832 9.92924
      vertex 25 6.98308 8.7565
      vertex 29 6.98308 8.7565
    endloop
  endfacet
  facet normal -0 0.532051 0.846712
    outer loop
      vertex 25 6.98308 8.7565
      vertex 29 4.8595 10.0909
      vertex 29 6.98308 8.7565
    endloop
  endfacet
  facet normal 0 0.532051 0.846712
    outer loop
      vertex 29 4.8595 10.0909
      vertex 25 6.98308 8.7565
      vertex 25 4.8595 10.0909
    endloop
  endfacet
  facet normal 0 0.900966 -0.433889
    outer loop
      vertex 29 4.8595 10.0909
      vertex 25 5.51031 11.4423
      vertex 29 5.51031 11.4423
    endloop
  endfacet
  facet normal 0 0.900966 -0.433889
    outer loop
      vertex 25 5.51031 11.4423
      vertex 29 4.8595 10.0909
      vertex 25 4.8595 10.0909
    endloop
  endfacet
  facet normal 0 0.999045 -0.0436982
    outer loop
      vertex 29 5.51031 11.4423
      vertex 25 5.58095 13.0573
      vertex 29 5.58095 13.0573
    endloop
  endfacet
  facet normal 0 0.999045 -0.0436982
    outer loop
      vertex 25 5.58095 13.0573
      vertex 29 5.51031 11.4423
      vertex 25 5.51031 11.4423
    endloop
  endfacet
  facet normal -0 0.330288 0.94388
    outer loop
      vertex 25 5.58095 13.0573
      vertex 29 3.77771 13.6883
      vertex 29 5.58095 13.0573
    endloop
  endfacet
  facet normal 0 0.330288 0.94388
    outer loop
      vertex 29 3.77771 13.6883
      vertex 25 5.58095 13.0573
      vertex 25 3.77771 13.6883
    endloop
  endfacet
  facet normal 0 -0.808329 0.588731
    outer loop
      vertex 25 2.826 12.3816
      vertex 29 3.77771 13.6883
      vertex 25 3.77771 13.6883
    endloop
  endfacet
  facet normal 0 -0.808329 0.588731
    outer loop
      vertex 29 3.77771 13.6883
      vertex 25 2.826 12.3816
      vertex 29 2.826 12.3816
    endloop
  endfacet
  facet normal 0 -0.97493 0.222513
    outer loop
      vertex 25 2.49223 10.9192
      vertex 29 2.826 12.3816
      vertex 25 2.826 12.3816
    endloop
  endfacet
  facet normal 0 -0.97493 0.222513
    outer loop
      vertex 29 2.826 12.3816
      vertex 25 2.49223 10.9192
      vertex 29 2.49223 10.9192
    endloop
  endfacet
  facet normal -0 0.111962 0.993713
    outer loop
      vertex 25 2.49223 10.9192
      vertex 29 0 11.2
      vertex 29 2.49223 10.9192
    endloop
  endfacet
  facet normal 0 0.111962 0.993713
    outer loop
      vertex 29 0 11.2
      vertex 25 2.49223 10.9192
      vertex 25 0 11.2
    endloop
  endfacet
  facet normal 0 1 -0
    outer loop
      vertex 29 0 11.2
      vertex 25 0 12.7
      vertex 29 0 12.7
    endloop
  endfacet
  facet normal 0 1 0
    outer loop
      vertex 25 0 12.7
      vertex 29 0 11.2
      vertex 25 0 11.2
    endloop
  endfacet
  facet normal 0 0.919069 0.394098
    outer loop
      vertex 29 0 12.7
      vertex 25 -0.63707 14.1857
      vertex 29 -0.63707 14.1857
    endloop
  endfacet
  facet normal 0 0.919069 0.394098
    outer loop
      vertex 25 -0.63707 14.1857
      vertex 29 0 12.7
      vertex 25 0 12.7
    endloop
  endfacet
  facet normal 0 -0.111963 0.993712
    outer loop
      vertex 25 -0.63707 14.1857
      vertex 29 -2.53551 13.9718
      vertex 29 -0.63707 14.1857
    endloop
  endfacet
  facet normal 0 -0.111963 0.993712
    outer loop
      vertex 29 -2.53551 13.9718
      vertex 25 -0.63707 14.1857
      vertex 25 -2.53551 13.9718
    endloop
  endfacet
  facet normal 0 -0.983721 0.179701
    outer loop
      vertex 25 -2.826 12.3816
      vertex 29 -2.53551 13.9718
      vertex 25 -2.53551 13.9718
    endloop
  endfacet
  facet normal 0 -0.983721 0.179701
    outer loop
      vertex 29 -2.53551 13.9718
      vertex 25 -2.826 12.3816
      vertex 29 -2.826 12.3816
    endloop
  endfacet
  facet normal 0 -0.97493 -0.222513
    outer loop
      vertex 25 -2.49223 10.9192
      vertex 29 -2.826 12.3816
      vertex 25 -2.826 12.3816
    endloop
  endfacet
  facet normal 0 -0.97493 -0.222513
    outer loop
      vertex 29 -2.826 12.3816
      vertex 25 -2.49223 10.9192
      vertex 29 -2.49223 10.9192
    endloop
  endfacet
  facet normal 0 -0.330264 0.943889
    outer loop
      vertex 25 -2.49223 10.9192
      vertex 29 -4.8595 10.0909
      vertex 29 -2.49223 10.9192
    endloop
  endfacet
  facet normal 0 -0.330264 0.943889
    outer loop
      vertex 29 -4.8595 10.0909
      vertex 25 -2.49223 10.9192
      vertex 25 -4.8595 10.0909
    endloop
  endfacet
  facet normal 0 0.900966 0.433889
    outer loop
      vertex 29 -4.8595 10.0909
      vertex 25 -5.51031 11.4423
      vertex 29 -5.51031 11.4423
    endloop
  endfacet
  facet normal 0 0.900966 0.433889
    outer loop
      vertex 25 -5.51031 11.4423
      vertex 29 -4.8595 10.0909
      vertex 25 -4.8595 10.0909
    endloop
  endfacet
  facet normal -0 0.65707 0.75383
    outer loop
      vertex 25 -5.51031 11.4423
      vertex 29 -6.72893 12.5045
      vertex 29 -5.51031 11.4423
    endloop
  endfacet
  facet normal 0 0.65707 0.75383
    outer loop
      vertex 29 -6.72893 12.5045
      vertex 25 -5.51031 11.4423
      vertex 25 -6.72893 12.5045
    endloop
  endfacet
  facet normal 0 -0.532065 0.846703
    outer loop
      vertex 25 -6.72893 12.5045
      vertex 29 -8.34654 11.488
      vertex 29 -6.72893 12.5045
    endloop
  endfacet
  facet normal 0 -0.532065 0.846703
    outer loop
      vertex 29 -8.34654 11.488
      vertex 25 -6.72893 12.5045
      vertex 25 -8.34654 11.488
    endloop
  endfacet
  facet normal 0 -0.964275 -0.264904
    outer loop
      vertex 25 -7.91832 9.92924
      vertex 29 -8.34654 11.488
      vertex 25 -8.34654 11.488
    endloop
  endfacet
  facet normal 0 -0.964275 -0.264904
    outer loop
      vertex 29 -8.34654 11.488
      vertex 25 -7.91832 9.92924
      vertex 29 -7.91832 9.92924
    endloop
  endfacet
  facet normal 0 -0.781828 -0.623494
    outer loop
      vertex 25 -6.98308 8.7565
      vertex 29 -7.91832 9.92924
      vertex 25 -7.91832 9.92924
    endloop
  endfacet
  facet normal 0 -0.781828 -0.623494
    outer loop
      vertex 29 -7.91832 9.92924
      vertex 25 -6.98308 8.7565
      vertex 29 -6.98308 8.7565
    endloop
  endfacet
  facet normal 0 -0.707107 0.707107
    outer loop
      vertex 25 -8.7565 6.98308
      vertex 29 -6.98308 8.7565
      vertex 25 -6.98308 8.7565
    endloop
  endfacet
  facet normal 0 -0.707107 0.707107
    outer loop
      vertex 29 -6.98308 8.7565
      vertex 25 -8.7565 6.98308
      vertex 29 -8.7565 6.98308
    endloop
  endfacet
  facet normal -0 0.623494 0.781828
    outer loop
      vertex 25 -8.7565 6.98308
      vertex 29 -9.92924 7.91832
      vertex 29 -8.7565 6.98308
    endloop
  endfacet
  facet normal 0 0.623494 0.781828
    outer loop
      vertex 29 -9.92924 7.91832
      vertex 25 -8.7565 6.98308
      vertex 25 -9.92924 7.91832
    endloop
  endfacet
  facet normal -0 0.264904 0.964275
    outer loop
      vertex 25 -9.92924 7.91832
      vertex 29 -11.488 8.34654
      vertex 29 -9.92924 7.91832
    endloop
  endfacet
  facet normal 0 0.264904 0.964275
    outer loop
      vertex 29 -11.488 8.34654
      vertex 25 -9.92924 7.91832
      vertex 25 -11.488 8.34654
    endloop
  endfacet
  facet normal 0 -0.846703 0.532065
    outer loop
      vertex 25 -12.5045 6.72893
      vertex 29 -11.488 8.34654
      vertex 25 -11.488 8.34654
    endloop
  endfacet
  facet normal 0 -0.846703 0.532065
    outer loop
      vertex 29 -11.488 8.34654
      vertex 25 -12.5045 6.72893
      vertex 29 -12.5045 6.72893
    endloop
  endfacet
  facet normal 0 -0.75383 -0.65707
    outer loop
      vertex 25 -11.4423 5.51031
      vertex 29 -12.5045 6.72893
      vertex 25 -12.5045 6.72893
    endloop
  endfacet
  facet normal 0 -0.75383 -0.65707
    outer loop
      vertex 29 -12.5045 6.72893
      vertex 25 -11.4423 5.51031
      vertex 29 -11.4423 5.51031
    endloop
  endfacet
  facet normal 0 -0.433889 -0.900966
    outer loop
      vertex 25 -11.4423 5.51031
      vertex 29 -10.0909 4.8595
      vertex 29 -11.4423 5.51031
    endloop
  endfacet
  facet normal -0 -0.433889 -0.900966
    outer loop
      vertex 29 -10.0909 4.8595
      vertex 25 -11.4423 5.51031
      vertex 25 -10.0909 4.8595
    endloop
  endfacet
  facet normal 0 -0.943889 0.330264
    outer loop
      vertex 25 -10.9192 2.49223
      vertex 29 -10.0909 4.8595
      vertex 25 -10.0909 4.8595
    endloop
  endfacet
  facet normal 0 -0.943889 0.330264
    outer loop
      vertex 29 -10.0909 4.8595
      vertex 25 -10.9192 2.49223
      vertex 29 -10.9192 2.49223
    endloop
  endfacet
  facet normal -0 0.222513 0.97493
    outer loop
      vertex 25 -10.9192 2.49223
      vertex 29 -12.3816 2.826
      vertex 29 -10.9192 2.49223
    endloop
  endfacet
  facet normal 0 0.222513 0.97493
    outer loop
      vertex 29 -12.3816 2.826
      vertex 25 -10.9192 2.49223
      vertex 25 -12.3816 2.826
    endloop
  endfacet
  facet normal 0 -0.179701 0.983721
    outer loop
      vertex 25 -12.3816 2.826
      vertex 29 -13.9718 2.53551
      vertex 29 -12.3816 2.826
    endloop
  endfacet
  facet normal 0 -0.179701 0.983721
    outer loop
      vertex 29 -13.9718 2.53551
      vertex 25 -12.3816 2.826
      vertex 25 -13.9718 2.53551
    endloop
  endfacet
  facet normal 0 -0.993712 0.111963
    outer loop
      vertex 25 -14.1857 0.63707
      vertex 29 -13.9718 2.53551
      vertex 25 -13.9718 2.53551
    endloop
  endfacet
  facet normal 0 -0.993712 0.111963
    outer loop
      vertex 29 -13.9718 2.53551
      vertex 25 -14.1857 0.63707
      vertex 29 -14.1857 0.63707
    endloop
  endfacet
  facet normal 0 -0.394098 -0.919069
    outer loop
      vertex 25 -14.1857 0.63707
      vertex 29 -12.7 0
      vertex 29 -14.1857 0.63707
    endloop
  endfacet
  facet normal -0 -0.394098 -0.919069
    outer loop
      vertex 29 -12.7 0
      vertex 25 -14.1857 0.63707
      vertex 25 -12.7 0
    endloop
  endfacet
  facet normal 0 0 -1
    outer loop
      vertex 25 -0.246508 2.73893
      vertex 29 0.246508 2.73893
      vertex 29 -0.246508 2.73893
    endloop
  endfacet
  facet normal -0 0 -1
    outer loop
      vertex 29 0.246508 2.73893
      vertex 25 -0.246508 2.73893
      vertex 25 0.246508 2.73893
    endloop
  endfacet
  facet normal 0 -0.998993 0.0448667
    outer loop
      vertex 25 2.72511 -0.369141
      vertex 29 2.74723 0.123378
      vertex 25 2.74723 0.123378
    endloop
  endfacet
  facet normal 0 -0.998993 0.0448667
    outer loop
      vertex 29 2.74723 0.123378
      vertex 25 2.72511 -0.369141
      vertex 29 2.72511 -0.369141
    endloop
  endfacet
  facet normal 0 0.998993 0.0448667
    outer loop
      vertex 29 -2.72511 -0.369141
      vertex 25 -2.74723 0.123378
      vertex 29 -2.74723 0.123378
    endloop
  endfacet
  facet normal 0 0.998993 0.0448667
    outer loop
      vertex 25 -2.74723 0.123378
      vertex 29 -2.72511 -0.369141
      vertex 25 -2.72511 -0.369141
    endloop
  endfacet
  facet normal -0 0.587774 0.809025
    outer loop
      vertex 25 -1.41047 -2.36073
      vertex 29 -1.80933 -2.07095
      vertex 29 -1.41047 -2.36073
    endloop
  endfacet
  facet normal 0 0.587774 0.809025
    outer loop
      vertex 29 -1.80933 -2.07095
      vertex 25 -1.41047 -2.36073
      vertex 25 -1.80933 -2.07095
    endloop
  endfacet
  facet normal 0 -0.72279 0.691067
    outer loop
      vertex 25 1.80933 -2.07095
      vertex 29 2.15004 -1.7146
      vertex 25 2.15004 -1.7146
    endloop
  endfacet
  facet normal 0 -0.72279 0.691067
    outer loop
      vertex 29 2.15004 -1.7146
      vertex 25 1.80933 -2.07095
      vertex 29 1.80933 -2.07095
    endloop
  endfacet
  facet normal 0 -0.657942 -0.753069
    outer loop
      vertex 25 1.61641 2.2248
      vertex 29 1.98769 1.90042
      vertex 29 1.61641 2.2248
    endloop
  endfacet
  facet normal -0 -0.657942 -0.753069
    outer loop
      vertex 29 1.98769 1.90042
      vertex 25 1.61641 2.2248
      vertex 25 1.98769 1.90042
    endloop
  endfacet
  facet normal 0 -0.880601 -0.473859
    outer loop
      vertex 25 2.5287 1.08082
      vertex 29 2.29508 1.51497
      vertex 25 2.29508 1.51497
    endloop
  endfacet
  facet normal 0 -0.880601 -0.473859
    outer loop
      vertex 29 2.29508 1.51497
      vertex 25 2.5287 1.08082
      vertex 29 2.5287 1.08082
    endloop
  endfacet
  facet normal 0 -0.433892 0.900965
    outer loop
      vertex 25 1.41047 -2.36073
      vertex 29 1.12128 -2.5
      vertex 29 1.41047 -2.36073
    endloop
  endfacet
  facet normal 0 -0.433892 0.900965
    outer loop
      vertex 29 1.12128 -2.5
      vertex 25 1.41047 -2.36073
      vertex 25 1.12128 -2.5
    endloop
  endfacet
  facet normal 0 -0.587774 0.809025
    outer loop
      vertex 25 1.80933 -2.07095
      vertex 29 1.41047 -2.36073
      vertex 29 1.80933 -2.07095
    endloop
  endfacet
  facet normal 0 -0.587774 0.809025
    outer loop
      vertex 29 1.41047 -2.36073
      vertex 25 1.80933 -2.07095
      vertex 25 1.41047 -2.36073
    endloop
  endfacet
  facet normal 0 -0.919527 0.393028
    outer loop
      vertex 25 2.42164 -1.30314
      vertex 29 2.61541 -0.849796
      vertex 25 2.61541 -0.849796
    endloop
  endfacet
  facet normal 0 -0.919527 0.393028
    outer loop
      vertex 29 2.61541 -0.849796
      vertex 25 2.42164 -1.30314
      vertex 29 2.42164 -1.30314
    endloop
  endfacet
  facet normal 0 -0.974931 0.222509
    outer loop
      vertex 25 2.61541 -0.849796
      vertex 29 2.72511 -0.369141
      vertex 25 2.72511 -0.369141
    endloop
  endfacet
  facet normal 0 -0.974931 0.222509
    outer loop
      vertex 29 2.72511 -0.369141
      vertex 25 2.61541 -0.849796
      vertex 29 2.61541 -0.849796
    endloop
  endfacet
  facet normal 0 -0.834575 0.550894
    outer loop
      vertex 25 2.15004 -1.7146
      vertex 29 2.42164 -1.30314
      vertex 25 2.42164 -1.30314
    endloop
  endfacet
  facet normal 0 -0.834575 0.550894
    outer loop
      vertex 29 2.42164 -1.30314
      vertex 25 2.15004 -1.7146
      vertex 29 2.15004 -1.7146
    endloop
  endfacet
  facet normal 0 -0.351386 -0.936231
    outer loop
      vertex 25 0.731601 2.6509
      vertex 29 1.19318 2.47766
      vertex 29 0.731601 2.6509
    endloop
  endfacet
  facet normal -0 -0.351386 -0.936231
    outer loop
      vertex 29 1.19318 2.47766
      vertex 25 0.731601 2.6509
      vertex 25 1.19318 2.47766
    endloop
  endfacet
  facet normal 0 -0.512887 -0.858456
    outer loop
      vertex 25 1.19318 2.47766
      vertex 29 1.61641 2.2248
      vertex 29 1.19318 2.47766
    endloop
  endfacet
  facet normal -0 -0.512887 -0.858456
    outer loop
      vertex 29 1.61641 2.2248
      vertex 25 1.19318 2.47766
      vertex 25 1.61641 2.2248
    endloop
  endfacet
  facet normal 0 -0.178554 -0.98393
    outer loop
      vertex 25 0.246508 2.73893
      vertex 29 0.731601 2.6509
      vertex 29 0.246508 2.73893
    endloop
  endfacet
  facet normal -0 -0.178554 -0.98393
    outer loop
      vertex 29 0.731601 2.6509
      vertex 25 0.246508 2.73893
      vertex 25 0.731601 2.6509
    endloop
  endfacet
  facet normal 0 -0.781828 -0.623495
    outer loop
      vertex 25 2.29508 1.51497
      vertex 29 1.98769 1.90042
      vertex 25 1.98769 1.90042
    endloop
  endfacet
  facet normal 0 -0.781828 -0.623495
    outer loop
      vertex 29 1.98769 1.90042
      vertex 25 2.29508 1.51497
      vertex 29 2.29508 1.51497
    endloop
  endfacet
  facet normal 0 -0.99095 -0.134235
    outer loop
      vertex 25 2.74723 0.123378
      vertex 29 2.68105 0.611932
      vertex 25 2.68105 0.611932
    endloop
  endfacet
  facet normal 0 -0.99095 -0.134235
    outer loop
      vertex 29 2.68105 0.611932
      vertex 25 2.74723 0.123378
      vertex 29 2.74723 0.123378
    endloop
  endfacet
  facet normal 0 0.974931 0.222509
    outer loop
      vertex 29 -2.61541 -0.849796
      vertex 25 -2.72511 -0.369141
      vertex 29 -2.72511 -0.369141
    endloop
  endfacet
  facet normal 0 0.974931 0.222509
    outer loop
      vertex 25 -2.72511 -0.369141
      vertex 29 -2.61541 -0.849796
      vertex 25 -2.61541 -0.849796
    endloop
  endfacet
  facet normal 0 -0.951057 -0.309015
    outer loop
      vertex 25 2.68105 0.611932
      vertex 29 2.5287 1.08082
      vertex 25 2.5287 1.08082
    endloop
  endfacet
  facet normal 0 -0.951057 -0.309015
    outer loop
      vertex 29 2.5287 1.08082
      vertex 25 2.68105 0.611932
      vertex 29 2.68105 0.611932
    endloop
  endfacet
  facet normal -0 0.433892 0.900965
    outer loop
      vertex 25 -1.12128 -2.5
      vertex 29 -1.41047 -2.36073
      vertex 29 -1.12128 -2.5
    endloop
  endfacet
  facet normal 0 0.433892 0.900965
    outer loop
      vertex 29 -1.41047 -2.36073
      vertex 25 -1.12128 -2.5
      vertex 25 -1.41047 -2.36073
    endloop
  endfacet
  facet normal 0 0.512887 -0.858456
    outer loop
      vertex 25 -1.61641 2.2248
      vertex 29 -1.19318 2.47766
      vertex 29 -1.61641 2.2248
    endloop
  endfacet
  facet normal 0 0.512887 -0.858456
    outer loop
      vertex 29 -1.19318 2.47766
      vertex 25 -1.61641 2.2248
      vertex 25 -1.19318 2.47766
    endloop
  endfacet
  facet normal 0 0.178554 -0.98393
    outer loop
      vertex 25 -0.731601 2.6509
      vertex 29 -0.246508 2.73893
      vertex 29 -0.731601 2.6509
    endloop
  endfacet
  facet normal 0 0.178554 -0.98393
    outer loop
      vertex 29 -0.246508 2.73893
      vertex 25 -0.731601 2.6509
      vertex 25 -0.246508 2.73893
    endloop
  endfacet
  facet normal 0 0.834575 0.550894
    outer loop
      vertex 29 -2.15004 -1.7146
      vertex 25 -2.42164 -1.30314
      vertex 29 -2.42164 -1.30314
    endloop
  endfacet
  facet normal 0 0.834575 0.550894
    outer loop
      vertex 25 -2.42164 -1.30314
      vertex 29 -2.15004 -1.7146
      vertex 25 -2.15004 -1.7146
    endloop
  endfacet
  facet normal 0 0.919527 0.393028
    outer loop
      vertex 29 -2.42164 -1.30314
      vertex 25 -2.61541 -0.849796
      vertex 29 -2.61541 -0.849796
    endloop
  endfacet
  facet normal 0 0.919527 0.393028
    outer loop
      vertex 25 -2.61541 -0.849796
      vertex 29 -2.42164 -1.30314
      vertex 25 -2.42164 -1.30314
    endloop
  endfacet
  facet normal 0 0.99095 -0.134235
    outer loop
      vertex 29 -2.74723 0.123378
      vertex 25 -2.68105 0.611932
      vertex 29 -2.68105 0.611932
    endloop
  endfacet
  facet normal 0 0.99095 -0.134235
    outer loop
      vertex 25 -2.68105 0.611932
      vertex 29 -2.74723 0.123378
      vertex 25 -2.74723 0.123378
    endloop
  endfacet
  facet normal 0 0.880601 -0.473859
    outer loop
      vertex 29 -2.5287 1.08082
      vertex 25 -2.29508 1.51497
      vertex 29 -2.29508 1.51497
    endloop
  endfacet
  facet normal 0 0.880601 -0.473859
    outer loop
      vertex 25 -2.29508 1.51497
      vertex 29 -2.5287 1.08082
      vertex 25 -2.5287 1.08082
    endloop
  endfacet
  facet normal 0 0.951057 -0.309015
    outer loop
      vertex 29 -2.68105 0.611932
      vertex 25 -2.5287 1.08082
      vertex 29 -2.5287 1.08082
    endloop
  endfacet
  facet normal 0 0.951057 -0.309015
    outer loop
      vertex 25 -2.5287 1.08082
      vertex 29 -2.68105 0.611932
      vertex 25 -2.68105 0.611932
    endloop
  endfacet
  facet normal 0 0.351386 -0.936231
    outer loop
      vertex 25 -1.19318 2.47766
      vertex 29 -0.731601 2.6509
      vertex 29 -1.19318 2.47766
    endloop
  endfacet
  facet normal 0 0.351386 -0.936231
    outer loop
      vertex 29 -0.731601 2.6509
      vertex 25 -1.19318 2.47766
      vertex 25 -0.731601 2.6509
    endloop
  endfacet
  facet normal 0 0.72279 0.691067
    outer loop
      vertex 29 -1.80933 -2.07095
      vertex 25 -2.15004 -1.7146
      vertex 29 -2.15004 -1.7146
    endloop
  endfacet
  facet normal 0 0.72279 0.691067
    outer loop
      vertex 25 -2.15004 -1.7146
      vertex 29 -1.80933 -2.07095
      vertex 25 -1.80933 -2.07095
    endloop
  endfacet
  facet normal 0 0.657942 -0.753069
    outer loop
      vertex 25 -1.98769 1.90042
      vertex 29 -1.61641 2.2248
      vertex 29 -1.98769 1.90042
    endloop
  endfacet
  facet normal 0 0.657942 -0.753069
    outer loop
      vertex 29 -1.61641 2.2248
      vertex 25 -1.98769 1.90042
      vertex 25 -1.61641 2.2248
    endloop
  endfacet
  facet normal 0 0.781828 -0.623495
    outer loop
      vertex 29 -2.29508 1.51497
      vertex 25 -1.98769 1.90042
      vertex 29 -1.98769 1.90042
    endloop
  endfacet
  facet normal 0 0.781828 -0.623495
    outer loop
      vertex 25 -1.98769 1.90042
      vertex 29 -2.29508 1.51497
      vertex 25 -2.29508 1.51497
    endloop
  endfacet
  facet normal -0 0 1
    outer loop
      vertex 25 1.12128 -2.5
      vertex 29 -1.12128 -2.5
      vertex 29 1.12128 -2.5
    endloop
  endfacet
  facet normal 0 0 1
    outer loop
      vertex 29 -1.12128 -2.5
      vertex 25 1.12128 -2.5
      vertex 25 -1.12128 -2.5
    endloop
  endfacet
endsolid OpenSCAD_Model
