solid OpenSCAD_Model
  facet normal 0 0 -1
    outer loop
      vertex 77.7383 -0.253336 -25
      vertex 79.9996 -0.0623314 -25
      vertex 79.9686 -0.559822 -25
    endloop
  endfacet
  facet normal 0 -0 -1
    outer loop
      vertex 77.7395 0.239678 -25
      vertex 79.9996 -0.0623314 -25
      vertex 77.7383 -0.253336 -25
    endloop
  endfacet
  facet normal 0 0 -1
    outer loop
      vertex 77.7383 -0.253336 -25
      vertex 79.9686 -0.559822 -25
      vertex 79.8881 -1.05175 -25
    endloop
  endfacet
  facet normal 0 0 -1
    outer loop
      vertex 79.9996 -0.0623314 -25
      vertex 77.7395 0.239678 -25
      vertex 79.981 0.435779 -25
    endloop
  endfacet
  facet normal 0 0 -1
    outer loop
      vertex 77.6491 -0.738208 -25
      vertex 79.8881 -1.05175 -25
      vertex 79.7591 -1.53322 -25
    endloop
  endfacet
  facet normal -0 0 -1
    outer loop
      vertex 79.981 0.435779 -25
      vertex 77.7395 0.239678 -25
      vertex 79.9128 0.929558 -25
    endloop
  endfacet
  facet normal 0 0 -1
    outer loop
      vertex 77.6491 -0.738208 -25
      vertex 79.7591 -1.53322 -25
      vertex 79.5828 -1.99946 -25
    endloop
  endfacet
  facet normal 0 0 -1
    outer loop
      vertex 77.6527 0.724989 -25
      vertex 79.9128 0.929558 -25
      vertex 77.7395 0.239678 -25
    endloop
  endfacet
  facet normal 0 0 -1
    outer loop
      vertex 77.4747 -1.19935 -25
      vertex 79.5828 -1.99946 -25
      vertex 79.361 -2.44582 -25
    endloop
  endfacet
  facet normal -0 0 -1
    outer loop
      vertex 79.9128 0.929558 -25
      vertex 77.6527 0.724989 -25
      vertex 79.7959 1.4141 -25
    endloop
  endfacet
  facet normal 0 0 -1
    outer loop
      vertex 77.2208 -1.62195 -25
      vertex 79.361 -2.44582 -25
      vertex 79.0958 -2.86788 -25
    endloop
  endfacet
  facet normal -0 0 -1
    outer loop
      vertex 79.7959 1.4141 -25
      vertex 77.6527 0.724989 -25
      vertex 79.6312 1.88459 -25
    endloop
  endfacet
  facet normal 0 0 -1
    outer loop
      vertex 77.2208 -1.62195 -25
      vertex 79.0958 -2.86788 -25
      vertex 78.7899 -3.26144 -25
    endloop
  endfacet
  facet normal 0 0 -1
    outer loop
      vertex 77.4806 1.187 -25
      vertex 79.6312 1.88459 -25
      vertex 77.6527 0.724989 -25
    endloop
  endfacet
  facet normal 0 0 -1
    outer loop
      vertex 76.8955 -1.99242 -25
      vertex 78.7899 -3.26144 -25
      vertex 78.4463 -3.62258 -25
    endloop
  endfacet
  facet normal -0 0 -1
    outer loop
      vertex 79.6312 1.88459 -25
      vertex 77.4806 1.187 -25
      vertex 79.4206 2.33634 -25
    endloop
  endfacet
  facet normal 0 0 -1
    outer loop
      vertex 76.8955 -1.99242 -25
      vertex 78.4463 -3.62258 -25
      vertex 78.0685 -3.94772 -25
    endloop
  endfacet
  facet normal -0 0 -1
    outer loop
      vertex 79.4206 2.33634 -25
      vertex 77.4806 1.187 -25
      vertex 79.166 2.76488 -25
    endloop
  endfacet
  facet normal -0 0 -1
    outer loop
      vertex 79.166 2.76488 -25
      vertex 77.2288 1.61086 -25
      vertex 78.87 3.16594 -25
    endloop
  endfacet
  facet normal 0 0 -1
    outer loop
      vertex 77.2288 1.61086 -25
      vertex 79.166 2.76488 -25
      vertex 77.4806 1.187 -25
    endloop
  endfacet
  facet normal 0 0 -1
    outer loop
      vertex 76.5092 -2.29885 -25
      vertex 78.0685 -3.94772 -25
      vertex 77.6602 -4.23362 -25
    endloop
  endfacet
  facet normal 0 0 -1
    outer loop
      vertex 79.8881 -1.05175 -25
      vertex 77.6491 -0.738208 -25
      vertex 77.7383 -0.253336 -25
    endloop
  endfacet
  facet normal 0 0 -1
    outer loop
      vertex 79.5828 -1.99946 -25
      vertex 77.4747 -1.19935 -25
      vertex 77.6491 -0.738208 -25
    endloop
  endfacet
  facet normal 0 0 -1
    outer loop
      vertex 76.5092 -2.29885 -25
      vertex 77.6602 -4.23362 -25
      vertex 77.2254 -4.47745 -25
    endloop
  endfacet
  facet normal 0 0 -1
    outer loop
      vertex 79.361 -2.44582 -25
      vertex 77.2208 -1.62195 -25
      vertex 77.4747 -1.19935 -25
    endloop
  endfacet
  facet normal 0 0 -1
    outer loop
      vertex 78.7899 -3.26144 -25
      vertex 76.8955 -1.99242 -25
      vertex 77.2208 -1.62195 -25
    endloop
  endfacet
  facet normal 0 0 -1
    outer loop
      vertex 76.0745 -2.53139 -25
      vertex 77.2254 -4.47745 -25
      vertex 76.7685 -4.67678 -25
    endloop
  endfacet
  facet normal 0 0 -1
    outer loop
      vertex 78.0685 -3.94772 -25
      vertex 76.5092 -2.29885 -25
      vertex 76.8955 -1.99242 -25
    endloop
  endfacet
  facet normal 0 0 -1
    outer loop
      vertex 76.0745 -2.53139 -25
      vertex 76.7685 -4.67678 -25
      vertex 76.2941 -4.82963 -25
    endloop
  endfacet
  facet normal 0 0 -1
    outer loop
      vertex 77.2254 -4.47745 -25
      vertex 76.0745 -2.53139 -25
      vertex 76.5092 -2.29885 -25
    endloop
  endfacet
  facet normal 0 0 -1
    outer loop
      vertex 75.6052 -2.68257 -25
      vertex 76.2941 -4.82963 -25
      vertex 75.8068 -4.93448 -25
    endloop
  endfacet
  facet normal 0 0 -1
    outer loop
      vertex 76.2941 -4.82963 -25
      vertex 75.6052 -2.68257 -25
      vertex 76.0745 -2.53139 -25
    endloop
  endfacet
  facet normal 0 0 -1
    outer loop
      vertex 75.1165 -2.74753 -25
      vertex 75.8068 -4.93448 -25
      vertex 75.3115 -4.99029 -25
    endloop
  endfacet
  facet normal 0 0 -1
    outer loop
      vertex 75.8068 -4.93448 -25
      vertex 75.1165 -2.74753 -25
      vertex 75.6052 -2.68257 -25
    endloop
  endfacet
  facet normal 0 0 -1
    outer loop
      vertex 74.813 -4.9965 -25
      vertex 75.1165 -2.74753 -25
      vertex 75.3115 -4.99029 -25
    endloop
  endfacet
  facet normal 0 0 -1
    outer loop
      vertex 74.813 -4.9965 -25
      vertex 74.6241 -2.72418 -25
      vertex 75.1165 -2.74753 -25
    endloop
  endfacet
  facet normal 0 0 -1
    outer loop
      vertex 74.3165 -4.95306 -25
      vertex 74.6241 -2.72418 -25
      vertex 74.813 -4.9965 -25
    endloop
  endfacet
  facet normal 0 0 -1
    outer loop
      vertex 73.8267 -4.86039 -25
      vertex 74.6241 -2.72418 -25
      vertex 74.3165 -4.95306 -25
    endloop
  endfacet
  facet normal -0 0 -1
    outer loop
      vertex 74.6241 -2.72418 -25
      vertex 73.8267 -4.86039 -25
      vertex 74.1437 -2.61328 -25
    endloop
  endfacet
  facet normal 0 0 -1
    outer loop
      vertex 73.3486 -4.71942 -25
      vertex 74.1437 -2.61328 -25
      vertex 73.8267 -4.86039 -25
    endloop
  endfacet
  facet normal 0 0 -1
    outer loop
      vertex 72.8869 -4.53154 -25
      vertex 74.1437 -2.61328 -25
      vertex 73.3486 -4.71942 -25
    endloop
  endfacet
  facet normal -0 0 -1
    outer loop
      vertex 74.1437 -2.61328 -25
      vertex 72.8869 -4.53154 -25
      vertex 73.6908 -2.41838 -25
    endloop
  endfacet
  facet normal 0 0 -1
    outer loop
      vertex 72.4462 -4.29862 -25
      vertex 73.6908 -2.41838 -25
      vertex 72.8869 -4.53154 -25
    endloop
  endfacet
  facet normal -0 0 -1
    outer loop
      vertex 73.6908 -2.41838 -25
      vertex 72.4462 -4.29862 -25
      vertex 73.28 -2.14575 -25
    endloop
  endfacet
  facet normal 0 0 -1
    outer loop
      vertex 72.0309 -4.02299 -25
      vertex 73.28 -2.14575 -25
      vertex 72.4462 -4.29862 -25
    endloop
  endfacet
  facet normal 0 0 -1
    outer loop
      vertex 71.6451 -3.70737 -25
      vertex 73.28 -2.14575 -25
      vertex 72.0309 -4.02299 -25
    endloop
  endfacet
  facet normal -0 0 -1
    outer loop
      vertex 73.28 -2.14575 -25
      vertex 71.6451 -3.70737 -25
      vertex 72.9245 -1.80416 -25
    endloop
  endfacet
  facet normal 0 0 -1
    outer loop
      vertex 71.2926 -3.35491 -25
      vertex 72.9245 -1.80416 -25
      vertex 71.6451 -3.70737 -25
    endloop
  endfacet
  facet normal 0 0 -1
    outer loop
      vertex 70.977 -2.9691 -25
      vertex 72.9245 -1.80416 -25
      vertex 71.2926 -3.35491 -25
    endloop
  endfacet
  facet normal -0 0 -1
    outer loop
      vertex 72.9245 -1.80416 -25
      vertex 70.977 -2.9691 -25
      vertex 72.6358 -1.40458 -25
    endloop
  endfacet
  facet normal 0 0 -1
    outer loop
      vertex 72.4107 0.911462 -25
      vertex 71.7386 3.78986 -25
      vertex 72.1321 4.09576 -25
    endloop
  endfacet
  facet normal 0 0 -1
    outer loop
      vertex 70.7014 -2.55379 -25
      vertex 72.6358 -1.40458 -25
      vertex 70.977 -2.9691 -25
    endloop
  endfacet
  facet normal 0 0 -1
    outer loop
      vertex 72.4107 0.911462 -25
      vertex 71.3774 3.44629 -25
      vertex 71.7386 3.78986 -25
    endloop
  endfacet
  facet normal -0 0 -1
    outer loop
      vertex 72.6358 -1.40458 -25
      vertex 70.7014 -2.55379 -25
      vertex 72.6083 -1.34724 -25
    endloop
  endfacet
  facet normal 0 0 -1
    outer loop
      vertex 72.4107 0.911462 -25
      vertex 71.0523 3.06847 -25
      vertex 71.3774 3.44629 -25
    endloop
  endfacet
  facet normal 0 0 -1
    outer loop
      vertex 70.4685 -2.11309 -25
      vertex 72.6083 -1.34724 -25
      vertex 70.7014 -2.55379 -25
    endloop
  endfacet
  facet normal 0 0 -1
    outer loop
      vertex 72.4107 0.911462 -25
      vertex 70.7664 2.66016 -25
      vertex 71.0523 3.06847 -25
    endloop
  endfacet
  facet normal 0 0 -1
    outer loop
      vertex 70.2806 -1.65139 -25
      vertex 72.6083 -1.34724 -25
      vertex 70.4685 -2.11309 -25
    endloop
  endfacet
  facet normal 0 0 -1
    outer loop
      vertex 72.4107 0.911462 -25
      vertex 70.5226 2.22541 -25
      vertex 70.7664 2.66016 -25
    endloop
  endfacet
  facet normal 0 0 -1
    outer loop
      vertex 70.1396 -1.17329 -25
      vertex 72.6083 -1.34724 -25
      vertex 70.2806 -1.65139 -25
    endloop
  endfacet
  facet normal 0 0 -1
    outer loop
      vertex 72.4107 0.911462 -25
      vertex 70.3232 1.76854 -25
      vertex 70.5226 2.22541 -25
    endloop
  endfacet
  facet normal 0 0 -1
    outer loop
      vertex 70.0469 -0.683517 -25
      vertex 72.6083 -1.34724 -25
      vertex 70.1396 -1.17329 -25
    endloop
  endfacet
  facet normal 0 0 -1
    outer loop
      vertex 72.4107 0.911462 -25
      vertex 70.1704 1.29409 -25
      vertex 70.3232 1.76854 -25
    endloop
  endfacet
  facet normal 0 0 -1
    outer loop
      vertex 72.6083 -1.34724 -25
      vertex 70.0469 -0.683517 -25
      vertex 72.4107 0.911462 -25
    endloop
  endfacet
  facet normal -0 0 -1
    outer loop
      vertex 72.4107 0.911462 -25
      vertex 70.0655 0.806789 -25
      vertex 70.1704 1.29409 -25
    endloop
  endfacet
  facet normal 0 0 -1
    outer loop
      vertex 70.0035 -0.186957 -25
      vertex 72.4107 0.911462 -25
      vertex 70.0469 -0.683517 -25
    endloop
  endfacet
  facet normal 0 0 -1
    outer loop
      vertex 72.4107 0.911462 -25
      vertex 70.0097 0.311464 -25
      vertex 70.0655 0.806789 -25
    endloop
  endfacet
  facet normal 0 0 -1
    outer loop
      vertex 72.4107 0.911462 -25
      vertex 70.0035 -0.186957 -25
      vertex 70.0097 0.311464 -25
    endloop
  endfacet
  facet normal 0 0 -1
    outer loop
      vertex 76.9054 1.98294 -25
      vertex 78.87 3.16594 -25
      vertex 77.2288 1.61086 -25
    endloop
  endfacet
  facet normal -0 0 -1
    outer loop
      vertex 78.87 3.16594 -25
      vertex 76.9054 1.98294 -25
      vertex 78.5355 3.53553 -25
    endloop
  endfacet
  facet normal -0 0 -1
    outer loop
      vertex 78.5355 3.53553 -25
      vertex 76.9054 1.98294 -25
      vertex 78.1659 3.86999 -25
    endloop
  endfacet
  facet normal 0 0 -1
    outer loop
      vertex 76.5207 2.29129 -25
      vertex 78.1659 3.86999 -25
      vertex 76.9054 1.98294 -25
    endloop
  endfacet
  facet normal -0 0 -1
    outer loop
      vertex 78.1659 3.86999 -25
      vertex 76.5207 2.29129 -25
      vertex 77.7649 4.16598 -25
    endloop
  endfacet
  facet normal -0 0 -1
    outer loop
      vertex 77.7649 4.16598 -25
      vertex 76.5207 2.29129 -25
      vertex 77.3363 4.42058 -25
    endloop
  endfacet
  facet normal 0 0 -1
    outer loop
      vertex 76.0871 2.526 -25
      vertex 77.3363 4.42058 -25
      vertex 76.5207 2.29129 -25
    endloop
  endfacet
  facet normal -0 0 -1
    outer loop
      vertex 77.3363 4.42058 -25
      vertex 76.0871 2.526 -25
      vertex 76.8846 4.63123 -25
    endloop
  endfacet
  facet normal -0 0 -1
    outer loop
      vertex 76.8846 4.63123 -25
      vertex 76.0871 2.526 -25
      vertex 76.4141 4.79587 -25
    endloop
  endfacet
  facet normal 0 0 -1
    outer loop
      vertex 75.6186 2.67952 -25
      vertex 76.4141 4.79587 -25
      vertex 76.0871 2.526 -25
    endloop
  endfacet
  facet normal -0 0 -1
    outer loop
      vertex 76.4141 4.79587 -25
      vertex 75.6186 2.67952 -25
      vertex 75.9296 4.91283 -25
    endloop
  endfacet
  facet normal 0 0 -1
    outer loop
      vertex 75.6186 2.67952 -25
      vertex 75.4358 4.98097 -25
      vertex 75.9296 4.91283 -25
    endloop
  endfacet
  facet normal 0 0 -1
    outer loop
      vertex 75.1302 2.74691 -25
      vertex 75.4358 4.98097 -25
      vertex 75.6186 2.67952 -25
    endloop
  endfacet
  facet normal 0 0 -1
    outer loop
      vertex 75.1302 2.74691 -25
      vertex 74.9377 4.99961 -25
      vertex 75.4358 4.98097 -25
    endloop
  endfacet
  facet normal 0 0 -1
    outer loop
      vertex 74.6377 2.72602 -25
      vertex 74.9377 4.99961 -25
      vertex 75.1302 2.74691 -25
    endloop
  endfacet
  facet normal 0 0 -1
    outer loop
      vertex 74.6377 2.72602 -25
      vertex 74.4402 4.96856 -25
      vertex 74.9377 4.99961 -25
    endloop
  endfacet
  facet normal 0 0 -1
    outer loop
      vertex 73.9482 4.88813 -25
      vertex 74.6377 2.72602 -25
      vertex 74.1567 2.61752 -25
    endloop
  endfacet
  facet normal 0 0 -1
    outer loop
      vertex 74.6377 2.72602 -25
      vertex 73.9482 4.88813 -25
      vertex 74.4402 4.96856 -25
    endloop
  endfacet
  facet normal 0 0 -1
    outer loop
      vertex 73.0005 4.58281 -25
      vertex 74.1567 2.61752 -25
      vertex 73.7029 2.42488 -25
    endloop
  endfacet
  facet normal 0 0 -1
    outer loop
      vertex 74.1567 2.61752 -25
      vertex 73.4668 4.75912 -25
      vertex 73.9482 4.88813 -25
    endloop
  endfacet
  facet normal 0 0 -1
    outer loop
      vertex 72.1321 4.09576 -25
      vertex 73.7029 2.42488 -25
      vertex 73.2908 2.1543 -25
    endloop
  endfacet
  facet normal 0 0 -1
    outer loop
      vertex 74.1567 2.61752 -25
      vertex 73.0005 4.58281 -25
      vertex 73.4668 4.75912 -25
    endloop
  endfacet
  facet normal 0 0 -1
    outer loop
      vertex 72.1321 4.09576 -25
      vertex 73.2908 2.1543 -25
      vertex 72.9336 1.81449 -25
    endloop
  endfacet
  facet normal 0 0 -1
    outer loop
      vertex 72.1321 4.09576 -25
      vertex 72.9336 1.81449 -25
      vertex 72.6428 1.41635 -25
    endloop
  endfacet
  facet normal 0 0 -1
    outer loop
      vertex 73.7029 2.42488 -25
      vertex 72.5542 4.36096 -25
      vertex 73.0005 4.58281 -25
    endloop
  endfacet
  facet normal 0 0 -1
    outer loop
      vertex 72.1321 4.09576 -25
      vertex 72.6428 1.41635 -25
      vertex 72.4278 0.972697 -25
    endloop
  endfacet
  facet normal 0 0 -1
    outer loop
      vertex 72.1321 4.09576 -25
      vertex 72.4278 0.972697 -25
      vertex 72.4107 0.911462 -25
    endloop
  endfacet
  facet normal 0 0 -1
    outer loop
      vertex 73.7029 2.42488 -25
      vertex 72.1321 4.09576 -25
      vertex 72.5542 4.36096 -25
    endloop
  endfacet
  facet normal 0 0 1
    outer loop
      vertex 79.9128 0.929558 -21
      vertex 77.6527 0.724989 -21
      vertex 77.7395 0.239678 -21
    endloop
  endfacet
  facet normal 0 0 1
    outer loop
      vertex 78.1659 3.86999 -21
      vertex 77.4806 1.187 -21
      vertex 77.6527 0.724989 -21
    endloop
  endfacet
  facet normal 0 0 1
    outer loop
      vertex 76.5207 2.29129 -21
      vertex 77.7649 4.16598 -21
      vertex 77.3363 4.42058 -21
    endloop
  endfacet
  facet normal 0 0 1
    outer loop
      vertex 78.1659 3.86999 -21
      vertex 77.2288 1.61086 -21
      vertex 77.4806 1.187 -21
    endloop
  endfacet
  facet normal 0 0 1
    outer loop
      vertex 78.1659 3.86999 -21
      vertex 76.9054 1.98294 -21
      vertex 77.2288 1.61086 -21
    endloop
  endfacet
  facet normal 0 0 1
    outer loop
      vertex 76.0871 2.526 -21
      vertex 77.3363 4.42058 -21
      vertex 76.8846 4.63123 -21
    endloop
  endfacet
  facet normal 0 0 1
    outer loop
      vertex 78.1659 3.86999 -21
      vertex 76.5207 2.29129 -21
      vertex 76.9054 1.98294 -21
    endloop
  endfacet
  facet normal 0 0 1
    outer loop
      vertex 76.0871 2.526 -21
      vertex 76.8846 4.63123 -21
      vertex 76.4141 4.79587 -21
    endloop
  endfacet
  facet normal 0 0 1
    outer loop
      vertex 77.3363 4.42058 -21
      vertex 76.0871 2.526 -21
      vertex 76.5207 2.29129 -21
    endloop
  endfacet
  facet normal 0 0 1
    outer loop
      vertex 75.6186 2.67952 -21
      vertex 76.4141 4.79587 -21
      vertex 75.9296 4.91283 -21
    endloop
  endfacet
  facet normal 0 0 1
    outer loop
      vertex 76.4141 4.79587 -21
      vertex 75.6186 2.67952 -21
      vertex 76.0871 2.526 -21
    endloop
  endfacet
  facet normal 0 0 1
    outer loop
      vertex 75.4358 4.98097 -21
      vertex 75.6186 2.67952 -21
      vertex 75.9296 4.91283 -21
    endloop
  endfacet
  facet normal 0 0 1
    outer loop
      vertex 75.4358 4.98097 -21
      vertex 75.1302 2.74691 -21
      vertex 75.6186 2.67952 -21
    endloop
  endfacet
  facet normal 0 0 1
    outer loop
      vertex 74.9377 4.99961 -21
      vertex 75.1302 2.74691 -21
      vertex 75.4358 4.98097 -21
    endloop
  endfacet
  facet normal 0 0 1
    outer loop
      vertex 74.9377 4.99961 -21
      vertex 74.6377 2.72602 -21
      vertex 75.1302 2.74691 -21
    endloop
  endfacet
  facet normal -0 0 1
    outer loop
      vertex 74.4402 4.96856 -21
      vertex 74.6377 2.72602 -21
      vertex 74.9377 4.99961 -21
    endloop
  endfacet
  facet normal -0 0 1
    outer loop
      vertex 73.9482 4.88813 -21
      vertex 74.6377 2.72602 -21
      vertex 74.4402 4.96856 -21
    endloop
  endfacet
  facet normal 0 0 1
    outer loop
      vertex 74.6377 2.72602 -21
      vertex 73.9482 4.88813 -21
      vertex 74.1567 2.61752 -21
    endloop
  endfacet
  facet normal -0 0 1
    outer loop
      vertex 73.4668 4.75912 -21
      vertex 74.1567 2.61752 -21
      vertex 73.9482 4.88813 -21
    endloop
  endfacet
  facet normal -0 0 1
    outer loop
      vertex 73.0005 4.58281 -21
      vertex 74.1567 2.61752 -21
      vertex 73.4668 4.75912 -21
    endloop
  endfacet
  facet normal 0 0 1
    outer loop
      vertex 74.1567 2.61752 -21
      vertex 73.0005 4.58281 -21
      vertex 73.7029 2.42488 -21
    endloop
  endfacet
  facet normal -0 0 1
    outer loop
      vertex 72.5542 4.36096 -21
      vertex 73.7029 2.42488 -21
      vertex 73.0005 4.58281 -21
    endloop
  endfacet
  facet normal -0 0 1
    outer loop
      vertex 72.1321 4.09576 -21
      vertex 73.7029 2.42488 -21
      vertex 72.5542 4.36096 -21
    endloop
  endfacet
  facet normal 0 0 1
    outer loop
      vertex 73.7029 2.42488 -21
      vertex 72.1321 4.09576 -21
      vertex 73.2908 2.1543 -21
    endloop
  endfacet
  facet normal -0 0 1
    outer loop
      vertex 71.7386 3.78986 -21
      vertex 73.2908 2.1543 -21
      vertex 72.1321 4.09576 -21
    endloop
  endfacet
  facet normal 0 0 1
    outer loop
      vertex 73.2908 2.1543 -21
      vertex 71.7386 3.78986 -21
      vertex 72.9336 1.81449 -21
    endloop
  endfacet
  facet normal -0 0 1
    outer loop
      vertex 71.3774 3.44629 -21
      vertex 72.9336 1.81449 -21
      vertex 71.7386 3.78986 -21
    endloop
  endfacet
  facet normal -0 0 1
    outer loop
      vertex 71.0523 3.06847 -21
      vertex 72.9336 1.81449 -21
      vertex 71.3774 3.44629 -21
    endloop
  endfacet
  facet normal -0 0 1
    outer loop
      vertex 77.7395 0.239678 -21
      vertex 79.9996 -0.0623314 -21
      vertex 79.981 0.435779 -21
    endloop
  endfacet
  facet normal 0 0 1
    outer loop
      vertex 77.7395 0.239678 -21
      vertex 79.981 0.435779 -21
      vertex 79.9128 0.929558 -21
    endloop
  endfacet
  facet normal 0 0 1
    outer loop
      vertex 79.9996 -0.0623314 -21
      vertex 77.7395 0.239678 -21
      vertex 77.7383 -0.253336 -21
    endloop
  endfacet
  facet normal 0 0 1
    outer loop
      vertex 77.6527 0.724989 -21
      vertex 79.9128 0.929558 -21
      vertex 79.7959 1.4141 -21
    endloop
  endfacet
  facet normal 0 0 1
    outer loop
      vertex 79.9996 -0.0623314 -21
      vertex 77.7383 -0.253336 -21
      vertex 79.9686 -0.559822 -21
    endloop
  endfacet
  facet normal 0 0 1
    outer loop
      vertex 77.6527 0.724989 -21
      vertex 79.7959 1.4141 -21
      vertex 79.6312 1.88459 -21
    endloop
  endfacet
  facet normal 0 0 1
    outer loop
      vertex 79.9686 -0.559822 -21
      vertex 77.7383 -0.253336 -21
      vertex 79.8881 -1.05175 -21
    endloop
  endfacet
  facet normal 0 0 1
    outer loop
      vertex 77.6527 0.724989 -21
      vertex 79.6312 1.88459 -21
      vertex 79.4206 2.33634 -21
    endloop
  endfacet
  facet normal -0 0 1
    outer loop
      vertex 77.6491 -0.738208 -21
      vertex 79.8881 -1.05175 -21
      vertex 77.7383 -0.253336 -21
    endloop
  endfacet
  facet normal 0 0 1
    outer loop
      vertex 77.6527 0.724989 -21
      vertex 79.4206 2.33634 -21
      vertex 79.166 2.76488 -21
    endloop
  endfacet
  facet normal 0 0 1
    outer loop
      vertex 79.8881 -1.05175 -21
      vertex 77.6491 -0.738208 -21
      vertex 79.7591 -1.53322 -21
    endloop
  endfacet
  facet normal 0 0 1
    outer loop
      vertex 77.6527 0.724989 -21
      vertex 79.166 2.76488 -21
      vertex 78.87 3.16594 -21
    endloop
  endfacet
  facet normal 0 0 1
    outer loop
      vertex 79.7591 -1.53322 -21
      vertex 77.6491 -0.738208 -21
      vertex 79.5828 -1.99946 -21
    endloop
  endfacet
  facet normal 0 0 1
    outer loop
      vertex 77.6527 0.724989 -21
      vertex 78.87 3.16594 -21
      vertex 78.5355 3.53553 -21
    endloop
  endfacet
  facet normal -0 0 1
    outer loop
      vertex 77.4747 -1.19935 -21
      vertex 79.5828 -1.99946 -21
      vertex 77.6491 -0.738208 -21
    endloop
  endfacet
  facet normal 0 0 1
    outer loop
      vertex 77.6527 0.724989 -21
      vertex 78.5355 3.53553 -21
      vertex 78.1659 3.86999 -21
    endloop
  endfacet
  facet normal 0 0 1
    outer loop
      vertex 79.5828 -1.99946 -21
      vertex 77.4747 -1.19935 -21
      vertex 79.361 -2.44582 -21
    endloop
  endfacet
  facet normal 0 0 1
    outer loop
      vertex 76.5207 2.29129 -21
      vertex 78.1659 3.86999 -21
      vertex 77.7649 4.16598 -21
    endloop
  endfacet
  facet normal -0 0 1
    outer loop
      vertex 77.2208 -1.62195 -21
      vertex 79.361 -2.44582 -21
      vertex 77.4747 -1.19935 -21
    endloop
  endfacet
  facet normal 0 0 1
    outer loop
      vertex 79.361 -2.44582 -21
      vertex 77.2208 -1.62195 -21
      vertex 79.0958 -2.86788 -21
    endloop
  endfacet
  facet normal 0 0 1
    outer loop
      vertex 79.0958 -2.86788 -21
      vertex 77.2208 -1.62195 -21
      vertex 78.7899 -3.26144 -21
    endloop
  endfacet
  facet normal -0 0 1
    outer loop
      vertex 76.8955 -1.99242 -21
      vertex 78.7899 -3.26144 -21
      vertex 77.2208 -1.62195 -21
    endloop
  endfacet
  facet normal 0 0 1
    outer loop
      vertex 78.7899 -3.26144 -21
      vertex 76.8955 -1.99242 -21
      vertex 78.4463 -3.62258 -21
    endloop
  endfacet
  facet normal 0 0 1
    outer loop
      vertex 78.4463 -3.62258 -21
      vertex 76.8955 -1.99242 -21
      vertex 78.0685 -3.94772 -21
    endloop
  endfacet
  facet normal -0 0 1
    outer loop
      vertex 76.5092 -2.29885 -21
      vertex 78.0685 -3.94772 -21
      vertex 76.8955 -1.99242 -21
    endloop
  endfacet
  facet normal 0 0 1
    outer loop
      vertex 78.0685 -3.94772 -21
      vertex 76.5092 -2.29885 -21
      vertex 77.6602 -4.23362 -21
    endloop
  endfacet
  facet normal 0 0 1
    outer loop
      vertex 77.6602 -4.23362 -21
      vertex 76.5092 -2.29885 -21
      vertex 77.2254 -4.47745 -21
    endloop
  endfacet
  facet normal -0 0 1
    outer loop
      vertex 76.0745 -2.53139 -21
      vertex 77.2254 -4.47745 -21
      vertex 76.5092 -2.29885 -21
    endloop
  endfacet
  facet normal 0 0 1
    outer loop
      vertex 77.2254 -4.47745 -21
      vertex 76.0745 -2.53139 -21
      vertex 76.7685 -4.67678 -21
    endloop
  endfacet
  facet normal 0 0 1
    outer loop
      vertex 76.7685 -4.67678 -21
      vertex 76.0745 -2.53139 -21
      vertex 76.2941 -4.82963 -21
    endloop
  endfacet
  facet normal -0 0 1
    outer loop
      vertex 75.6052 -2.68257 -21
      vertex 76.2941 -4.82963 -21
      vertex 76.0745 -2.53139 -21
    endloop
  endfacet
  facet normal 0 0 1
    outer loop
      vertex 76.2941 -4.82963 -21
      vertex 75.6052 -2.68257 -21
      vertex 75.8068 -4.93448 -21
    endloop
  endfacet
  facet normal -0 0 1
    outer loop
      vertex 75.1165 -2.74753 -21
      vertex 75.8068 -4.93448 -21
      vertex 75.6052 -2.68257 -21
    endloop
  endfacet
  facet normal 0 0 1
    outer loop
      vertex 75.8068 -4.93448 -21
      vertex 75.1165 -2.74753 -21
      vertex 75.3115 -4.99029 -21
    endloop
  endfacet
  facet normal 0 0 1
    outer loop
      vertex 75.1165 -2.74753 -21
      vertex 74.813 -4.9965 -21
      vertex 75.3115 -4.99029 -21
    endloop
  endfacet
  facet normal 0 0 1
    outer loop
      vertex 74.6241 -2.72418 -21
      vertex 74.813 -4.9965 -21
      vertex 75.1165 -2.74753 -21
    endloop
  endfacet
  facet normal 0 0 1
    outer loop
      vertex 74.6241 -2.72418 -21
      vertex 74.3165 -4.95306 -21
      vertex 74.813 -4.9965 -21
    endloop
  endfacet
  facet normal 0 0 1
    outer loop
      vertex 73.8267 -4.86039 -21
      vertex 74.6241 -2.72418 -21
      vertex 74.1437 -2.61328 -21
    endloop
  endfacet
  facet normal 0 0 1
    outer loop
      vertex 74.6241 -2.72418 -21
      vertex 73.8267 -4.86039 -21
      vertex 74.3165 -4.95306 -21
    endloop
  endfacet
  facet normal 0 0 1
    outer loop
      vertex 72.8869 -4.53154 -21
      vertex 74.1437 -2.61328 -21
      vertex 73.6908 -2.41838 -21
    endloop
  endfacet
  facet normal 0 0 1
    outer loop
      vertex 74.1437 -2.61328 -21
      vertex 73.3486 -4.71942 -21
      vertex 73.8267 -4.86039 -21
    endloop
  endfacet
  facet normal 0 0 1
    outer loop
      vertex 72.4462 -4.29862 -21
      vertex 73.6908 -2.41838 -21
      vertex 73.28 -2.14575 -21
    endloop
  endfacet
  facet normal 0 0 1
    outer loop
      vertex 71.6451 -3.70737 -21
      vertex 73.28 -2.14575 -21
      vertex 72.9245 -1.80416 -21
    endloop
  endfacet
  facet normal 0 0 1
    outer loop
      vertex 74.1437 -2.61328 -21
      vertex 72.8869 -4.53154 -21
      vertex 73.3486 -4.71942 -21
    endloop
  endfacet
  facet normal 0 0 1
    outer loop
      vertex 70.977 -2.9691 -21
      vertex 72.9245 -1.80416 -21
      vertex 72.6358 -1.40458 -21
    endloop
  endfacet
  facet normal 0 0 1
    outer loop
      vertex 70.7014 -2.55379 -21
      vertex 72.6358 -1.40458 -21
      vertex 72.6083 -1.34724 -21
    endloop
  endfacet
  facet normal 0 0 1
    outer loop
      vertex 73.6908 -2.41838 -21
      vertex 72.4462 -4.29862 -21
      vertex 72.8869 -4.53154 -21
    endloop
  endfacet
  facet normal -0 0 1
    outer loop
      vertex 70.0469 -0.683517 -21
      vertex 72.6083 -1.34724 -21
      vertex 72.4107 0.911462 -21
    endloop
  endfacet
  facet normal 0 0 1
    outer loop
      vertex 72.9336 1.81449 -21
      vertex 71.0523 3.06847 -21
      vertex 72.6428 1.41635 -21
    endloop
  endfacet
  facet normal 0 0 1
    outer loop
      vertex 73.28 -2.14575 -21
      vertex 72.0309 -4.02299 -21
      vertex 72.4462 -4.29862 -21
    endloop
  endfacet
  facet normal -0 0 1
    outer loop
      vertex 70.7664 2.66016 -21
      vertex 72.6428 1.41635 -21
      vertex 71.0523 3.06847 -21
    endloop
  endfacet
  facet normal 0 0 1
    outer loop
      vertex 73.28 -2.14575 -21
      vertex 71.6451 -3.70737 -21
      vertex 72.0309 -4.02299 -21
    endloop
  endfacet
  facet normal -0 0 1
    outer loop
      vertex 70.5226 2.22541 -21
      vertex 72.6428 1.41635 -21
      vertex 70.7664 2.66016 -21
    endloop
  endfacet
  facet normal 0 0 1
    outer loop
      vertex 72.9245 -1.80416 -21
      vertex 71.2926 -3.35491 -21
      vertex 71.6451 -3.70737 -21
    endloop
  endfacet
  facet normal 0 0 1
    outer loop
      vertex 72.6428 1.41635 -21
      vertex 70.5226 2.22541 -21
      vertex 72.4278 0.972697 -21
    endloop
  endfacet
  facet normal 0 0 1
    outer loop
      vertex 72.9245 -1.80416 -21
      vertex 70.977 -2.9691 -21
      vertex 71.2926 -3.35491 -21
    endloop
  endfacet
  facet normal -0 0 1
    outer loop
      vertex 70.3232 1.76854 -21
      vertex 72.4278 0.972697 -21
      vertex 70.5226 2.22541 -21
    endloop
  endfacet
  facet normal 0 0 1
    outer loop
      vertex 72.6358 -1.40458 -21
      vertex 70.7014 -2.55379 -21
      vertex 70.977 -2.9691 -21
    endloop
  endfacet
  facet normal 0 0 1
    outer loop
      vertex 72.4278 0.972697 -21
      vertex 70.3232 1.76854 -21
      vertex 72.4107 0.911462 -21
    endloop
  endfacet
  facet normal 0 0 1
    outer loop
      vertex 72.6083 -1.34724 -21
      vertex 70.4685 -2.11309 -21
      vertex 70.7014 -2.55379 -21
    endloop
  endfacet
  facet normal -0 0 1
    outer loop
      vertex 70.1704 1.29409 -21
      vertex 72.4107 0.911462 -21
      vertex 70.3232 1.76854 -21
    endloop
  endfacet
  facet normal 0 0 1
    outer loop
      vertex 72.6083 -1.34724 -21
      vertex 70.2806 -1.65139 -21
      vertex 70.4685 -2.11309 -21
    endloop
  endfacet
  facet normal 0 0 1
    outer loop
      vertex 70.0655 0.806789 -21
      vertex 72.4107 0.911462 -21
      vertex 70.1704 1.29409 -21
    endloop
  endfacet
  facet normal 0 0 1
    outer loop
      vertex 72.6083 -1.34724 -21
      vertex 70.1396 -1.17329 -21
      vertex 70.2806 -1.65139 -21
    endloop
  endfacet
  facet normal 0 0 1
    outer loop
      vertex 70.0097 0.311464 -21
      vertex 72.4107 0.911462 -21
      vertex 70.0655 0.806789 -21
    endloop
  endfacet
  facet normal 0 0 1
    outer loop
      vertex 72.6083 -1.34724 -21
      vertex 70.0469 -0.683517 -21
      vertex 70.1396 -1.17329 -21
    endloop
  endfacet
  facet normal 0 0 1
    outer loop
      vertex 70.0035 -0.186957 -21
      vertex 72.4107 0.911462 -21
      vertex 70.0097 0.311464 -21
    endloop
  endfacet
  facet normal 0 0 1
    outer loop
      vertex 72.4107 0.911462 -21
      vertex 70.0035 -0.186957 -21
      vertex 70.0469 -0.683517 -21
    endloop
  endfacet
  facet normal 0.59387 0.804561 -0
    outer loop
      vertex 78.1659 3.86999 -25
      vertex 77.7649 4.16598 -21
      vertex 78.1659 3.86999 -21
    endloop
  endfacet
  facet normal 0.59387 0.804561 0
    outer loop
      vertex 77.7649 4.16598 -21
      vertex 78.1659 3.86999 -25
      vertex 77.7649 4.16598 -25
    endloop
  endfacet
  facet normal -0.819154 0.573574 0
    outer loop
      vertex 70.7664 2.66016 -25
      vertex 71.0523 3.06847 -21
      vertex 71.0523 3.06847 -25
    endloop
  endfacet
  facet normal -0.819154 0.573574 0
    outer loop
      vertex 71.0523 3.06847 -21
      vertex 70.7664 2.66016 -25
      vertex 70.7664 2.66016 -21
    endloop
  endfacet
  facet normal -0.531999 0.846745 0
    outer loop
      vertex 72.5542 4.36096 -25
      vertex 72.1321 4.09576 -21
      vertex 72.5542 4.36096 -21
    endloop
  endfacet
  facet normal -0.531999 0.846745 0
    outer loop
      vertex 72.1321 4.09576 -21
      vertex 72.5542 4.36096 -25
      vertex 72.1321 4.09576 -25
    endloop
  endfacet
  facet normal 0.859719 0.510768 0
    outer loop
      vertex 79.4206 2.33634 -21
      vertex 79.166 2.76488 -25
      vertex 79.166 2.76488 -21
    endloop
  endfacet
  facet normal 0.859719 0.510768 0
    outer loop
      vertex 79.166 2.76488 -25
      vertex 79.4206 2.33634 -21
      vertex 79.4206 2.33634 -25
    endloop
  endfacet
  facet normal 0.234663 0.972077 -0
    outer loop
      vertex 76.4141 4.79587 -25
      vertex 75.9296 4.91283 -21
      vertex 76.4141 4.79587 -21
    endloop
  endfacet
  facet normal 0.234663 0.972077 0
    outer loop
      vertex 75.9296 4.91283 -21
      vertex 76.4141 4.79587 -25
      vertex 75.9296 4.91283 -25
    endloop
  endfacet
  facet normal 0.422649 0.906293 -0
    outer loop
      vertex 77.3363 4.42058 -25
      vertex 76.8846 4.63123 -21
      vertex 77.3363 4.42058 -21
    endloop
  endfacet
  facet normal 0.422649 0.906293 0
    outer loop
      vertex 76.8846 4.63123 -21
      vertex 77.3363 4.42058 -25
      vertex 76.8846 4.63123 -25
    endloop
  endfacet
  facet normal -0.951854 0.306551 0
    outer loop
      vertex 70.1704 1.29409 -25
      vertex 70.3232 1.76854 -21
      vertex 70.3232 1.76854 -25
    endloop
  endfacet
  facet normal -0.951854 0.306551 0
    outer loop
      vertex 70.3232 1.76854 -21
      vertex 70.1704 1.29409 -25
      vertex 70.1704 1.29409 -21
    endloop
  endfacet
  facet normal -0.916511 0.400009 0
    outer loop
      vertex 70.3232 1.76854 -25
      vertex 70.5226 2.22541 -21
      vertex 70.5226 2.22541 -25
    endloop
  endfacet
  facet normal -0.916511 0.400009 0
    outer loop
      vertex 70.5226 2.22541 -21
      vertex 70.3232 1.76854 -25
      vertex 70.3232 1.76854 -21
    endloop
  endfacet
  facet normal -0.353668 0.935371 0
    outer loop
      vertex 73.4668 4.75912 -25
      vertex 73.0005 4.58281 -21
      vertex 73.4668 4.75912 -21
    endloop
  endfacet
  facet normal -0.353668 0.935371 0
    outer loop
      vertex 73.0005 4.58281 -21
      vertex 73.4668 4.75912 -25
      vertex 73.0005 4.58281 -25
    endloop
  endfacet
  facet normal 0.399869 -0.916572 0
    outer loop
      vertex 76.7685 -4.67678 -25
      vertex 77.2254 -4.47745 -21
      vertex 76.7685 -4.67678 -21
    endloop
  endfacet
  facet normal 0.399869 -0.916572 0
    outer loop
      vertex 77.2254 -4.47745 -21
      vertex 76.7685 -4.67678 -25
      vertex 77.2254 -4.47745 -25
    endloop
  endfacet
  facet normal 0.90635 0.422528 0
    outer loop
      vertex 79.6312 1.88459 -21
      vertex 79.4206 2.33634 -25
      vertex 79.4206 2.33634 -21
    endloop
  endfacet
  facet normal 0.90635 0.422528 0
    outer loop
      vertex 79.4206 2.33634 -25
      vertex 79.6312 1.88459 -21
      vertex 79.6312 1.88459 -25
    endloop
  endfacet
  facet normal 0.741427 0.671034 0
    outer loop
      vertex 78.87 3.16594 -21
      vertex 78.5355 3.53553 -25
      vertex 78.5355 3.53553 -21
    endloop
  endfacet
  facet normal 0.741427 0.671034 0
    outer loop
      vertex 78.5355 3.53553 -25
      vertex 78.87 3.16594 -21
      vertex 78.87 3.16594 -25
    endloop
  endfacet
  facet normal 0.67098 0.741476 -0
    outer loop
      vertex 78.5355 3.53553 -25
      vertex 78.1659 3.86999 -21
      vertex 78.5355 3.53553 -21
    endloop
  endfacet
  facet normal 0.67098 0.741476 0
    outer loop
      vertex 78.1659 3.86999 -21
      vertex 78.5355 3.53553 -25
      vertex 78.1659 3.86999 -25
    endloop
  endfacet
  facet normal 0.510715 0.85975 -0
    outer loop
      vertex 77.7649 4.16598 -25
      vertex 77.3363 4.42058 -21
      vertex 77.7649 4.16598 -21
    endloop
  endfacet
  facet normal 0.510715 0.85975 0
    outer loop
      vertex 77.3363 4.42058 -21
      vertex 77.7649 4.16598 -25
      vertex 77.3363 4.42058 -25
    endloop
  endfacet
  facet normal -0.689203 0.724569 0
    outer loop
      vertex 71.7386 3.78986 -25
      vertex 71.3774 3.44629 -21
      vertex 71.7386 3.78986 -21
    endloop
  endfacet
  facet normal -0.689203 0.724569 0
    outer loop
      vertex 71.3774 3.44629 -21
      vertex 71.7386 3.78986 -25
      vertex 71.3774 3.44629 -25
    endloop
  endfacet
  facet normal -0.445126 0.895468 0
    outer loop
      vertex 73.0005 4.58281 -25
      vertex 72.5542 4.36096 -21
      vertex 73.0005 4.58281 -21
    endloop
  endfacet
  facet normal -0.445126 0.895468 0
    outer loop
      vertex 72.5542 4.36096 -21
      vertex 73.0005 4.58281 -25
      vertex 72.5542 4.36096 -25
    endloop
  endfacet
  facet normal 0.789549 -0.613688 0
    outer loop
      vertex 78.7899 -3.26144 -21
      vertex 79.0958 -2.86788 -25
      vertex 79.0958 -2.86788 -21
    endloop
  endfacet
  facet normal 0.789549 -0.613688 0
    outer loop
      vertex 79.0958 -2.86788 -25
      vertex 78.7899 -3.26144 -21
      vertex 78.7899 -3.26144 -25
    endloop
  endfacet
  facet normal 0.489126 -0.872213 0
    outer loop
      vertex 77.2254 -4.47745 -25
      vertex 77.6602 -4.23362 -21
      vertex 77.2254 -4.47745 -21
    endloop
  endfacet
  facet normal 0.489126 -0.872213 0
    outer loop
      vertex 77.6602 -4.23362 -21
      vertex 77.2254 -4.47745 -25
      vertex 77.6602 -4.23362 -25
    endloop
  endfacet
  facet normal 0.804594 0.593826 0
    outer loop
      vertex 79.166 2.76488 -21
      vertex 78.87 3.16594 -25
      vertex 78.87 3.16594 -21
    endloop
  endfacet
  facet normal 0.804594 0.593826 0
    outer loop
      vertex 78.87 3.16594 -25
      vertex 79.166 2.76488 -21
      vertex 79.166 2.76488 -25
    endloop
  endfacet
  facet normal 0.330288 0.94388 -0
    outer loop
      vertex 76.8846 4.63123 -25
      vertex 76.4141 4.79587 -21
      vertex 76.8846 4.63123 -21
    endloop
  endfacet
  facet normal 0.330288 0.94388 0
    outer loop
      vertex 76.4141 4.79587 -21
      vertex 76.8846 4.63123 -25
      vertex 76.4141 4.79587 -25
    endloop
  endfacet
  facet normal -0.872215 0.489123 0
    outer loop
      vertex 70.5226 2.22541 -25
      vertex 70.7664 2.66016 -21
      vertex 70.7664 2.66016 -25
    endloop
  endfacet
  facet normal -0.872215 0.489123 0
    outer loop
      vertex 70.7664 2.66016 -21
      vertex 70.5226 2.22541 -25
      vertex 70.5226 2.22541 -21
    endloop
  endfacet
  facet normal -0.977605 0.210447 0
    outer loop
      vertex 70.0655 0.806789 -25
      vertex 70.1704 1.29409 -21
      vertex 70.1704 1.29409 -25
    endloop
  endfacet
  facet normal -0.977605 0.210447 0
    outer loop
      vertex 70.1704 1.29409 -21
      vertex 70.0655 0.806789 -25
      vertex 70.0655 0.806789 -21
    endloop
  endfacet
  facet normal -0.758012 0.652241 0
    outer loop
      vertex 71.0523 3.06847 -25
      vertex 71.3774 3.44629 -21
      vertex 71.3774 3.44629 -25
    endloop
  endfacet
  facet normal -0.758012 0.652241 0
    outer loop
      vertex 71.3774 3.44629 -21
      vertex 71.0523 3.06847 -25
      vertex 71.0523 3.06847 -21
    endloop
  endfacet
  facet normal -0.613746 0.789503 0
    outer loop
      vertex 72.1321 4.09576 -25
      vertex 71.7386 3.78986 -21
      vertex 72.1321 4.09576 -21
    endloop
  endfacet
  facet normal -0.613746 0.789503 0
    outer loop
      vertex 71.7386 3.78986 -21
      vertex 72.1321 4.09576 -25
      vertex 71.7386 3.78986 -25
    endloop
  endfacet
  facet normal 0.724481 -0.689294 0
    outer loop
      vertex 78.4463 -3.62258 -21
      vertex 78.7899 -3.26144 -25
      vertex 78.7899 -3.26144 -21
    endloop
  endfacet
  facet normal 0.724481 -0.689294 0
    outer loop
      vertex 78.7899 -3.26144 -25
      vertex 78.4463 -3.62258 -21
      vertex 78.4463 -3.62258 -25
    endloop
  endfacet
  facet normal 0.965931 -0.258801 0
    outer loop
      vertex 79.7591 -1.53322 -21
      vertex 79.8881 -1.05175 -25
      vertex 79.8881 -1.05175 -21
    endloop
  endfacet
  facet normal 0.965931 -0.258801 0
    outer loop
      vertex 79.8881 -1.05175 -25
      vertex 79.7591 -1.53322 -21
      vertex 79.7591 -1.53322 -25
    endloop
  endfacet
  facet normal 0.935363 -0.35369 0
    outer loop
      vertex 79.5828 -1.99946 -21
      vertex 79.7591 -1.53322 -25
      vertex 79.7591 -1.53322 -21
    endloop
  endfacet
  facet normal 0.935363 -0.35369 0
    outer loop
      vertex 79.7591 -1.53322 -25
      vertex 79.5828 -1.99946 -21
      vertex 79.5828 -1.99946 -25
    endloop
  endfacet
  facet normal 0.895532 -0.444997 0
    outer loop
      vertex 79.361 -2.44582 -21
      vertex 79.5828 -1.99946 -25
      vertex 79.5828 -1.99946 -21
    endloop
  endfacet
  facet normal 0.895532 -0.444997 0
    outer loop
      vertex 79.5828 -1.99946 -25
      vertex 79.361 -2.44582 -21
      vertex 79.361 -2.44582 -25
    endloop
  endfacet
  facet normal 0.846722 -0.532035 0
    outer loop
      vertex 79.0958 -2.86788 -21
      vertex 79.361 -2.44582 -25
      vertex 79.361 -2.44582 -21
    endloop
  endfacet
  facet normal 0.846722 -0.532035 0
    outer loop
      vertex 79.361 -2.44582 -25
      vertex 79.0958 -2.86788 -21
      vertex 79.0958 -2.86788 -25
    endloop
  endfacet
  facet normal -0.707067 -0.707147 0
    outer loop
      vertex 71.6451 -3.70737 -25
      vertex 71.2926 -3.35491 -21
      vertex 71.2926 -3.35491 -25
    endloop
  endfacet
  facet normal -0.707067 -0.707147 0
    outer loop
      vertex 71.2926 -3.35491 -21
      vertex 71.6451 -3.70737 -25
      vertex 71.6451 -3.70737 -21
    endloop
  endfacet
  facet normal -0.774019 -0.633162 0
    outer loop
      vertex 71.2926 -3.35491 -25
      vertex 70.977 -2.9691 -21
      vertex 70.977 -2.9691 -25
    endloop
  endfacet
  facet normal -0.774019 -0.633162 0
    outer loop
      vertex 70.977 -2.9691 -21
      vertex 71.2926 -3.35491 -25
      vertex 71.2926 -3.35491 -21
    endloop
  endfacet
  facet normal -0.926232 -0.376953 0
    outer loop
      vertex 70.4685 -2.11309 -25
      vertex 70.2806 -1.65139 -21
      vertex 70.2806 -1.65139 -25
    endloop
  endfacet
  facet normal -0.926232 -0.376953 0
    outer loop
      vertex 70.2806 -1.65139 -21
      vertex 70.4685 -2.11309 -25
      vertex 70.4685 -2.11309 -21
    endloop
  endfacet
  facet normal 0.573584 -0.819147 0
    outer loop
      vertex 77.6602 -4.23362 -25
      vertex 78.0685 -3.94772 -21
      vertex 77.6602 -4.23362 -21
    endloop
  endfacet
  facet normal 0.573584 -0.819147 0
    outer loop
      vertex 78.0685 -3.94772 -21
      vertex 77.6602 -4.23362 -25
      vertex 78.0685 -3.94772 -25
    endloop
  endfacet
  facet normal 0.652307 -0.757955 0
    outer loop
      vertex 78.0685 -3.94772 -25
      vertex 78.4463 -3.62258 -21
      vertex 78.0685 -3.94772 -21
    endloop
  endfacet
  facet normal 0.652307 -0.757955 0
    outer loop
      vertex 78.4463 -3.62258 -21
      vertex 78.0685 -3.94772 -25
      vertex 78.4463 -3.62258 -25
    endloop
  endfacet
  facet normal -0.633196 -0.773991 0
    outer loop
      vertex 71.6451 -3.70737 -25
      vertex 72.0309 -4.02299 -21
      vertex 71.6451 -3.70737 -21
    endloop
  endfacet
  facet normal -0.633196 -0.773991 -0
    outer loop
      vertex 72.0309 -4.02299 -21
      vertex 71.6451 -3.70737 -25
      vertex 72.0309 -4.02299 -25
    endloop
  endfacet
  facet normal -0.833227 -0.55293 0
    outer loop
      vertex 70.977 -2.9691 -25
      vertex 70.7014 -2.55379 -21
      vertex 70.7014 -2.55379 -25
    endloop
  endfacet
  facet normal -0.833227 -0.55293 0
    outer loop
      vertex 70.7014 -2.55379 -21
      vertex 70.977 -2.9691 -25
      vertex 70.977 -2.9691 -21
    endloop
  endfacet
  facet normal -0.884129 -0.467242 0
    outer loop
      vertex 70.7014 -2.55379 -25
      vertex 70.4685 -2.11309 -21
      vertex 70.4685 -2.11309 -25
    endloop
  endfacet
  facet normal -0.884129 -0.467242 0
    outer loop
      vertex 70.4685 -2.11309 -21
      vertex 70.7014 -2.55379 -25
      vertex 70.7014 -2.55379 -21
    endloop
  endfacet
  facet normal -0.552981 -0.833194 0
    outer loop
      vertex 72.0309 -4.02299 -25
      vertex 72.4462 -4.29862 -21
      vertex 72.0309 -4.02299 -21
    endloop
  endfacet
  facet normal -0.552981 -0.833194 -0
    outer loop
      vertex 72.4462 -4.29862 -21
      vertex 72.0309 -4.02299 -25
      vertex 72.4462 -4.29862 -25
    endloop
  endfacet
  facet normal -0.185902 -0.982568 0
    outer loop
      vertex 73.8267 -4.86039 -25
      vertex 74.3165 -4.95306 -21
      vertex 73.8267 -4.86039 -21
    endloop
  endfacet
  facet normal -0.185902 -0.982568 -0
    outer loop
      vertex 74.3165 -4.95306 -21
      vertex 73.8267 -4.86039 -25
      vertex 74.3165 -4.95306 -25
    endloop
  endfacet
  facet normal -0.376918 -0.926246 0
    outer loop
      vertex 72.8869 -4.53154 -25
      vertex 73.3486 -4.71942 -21
      vertex 72.8869 -4.53154 -21
    endloop
  endfacet
  facet normal -0.376918 -0.926246 -0
    outer loop
      vertex 73.3486 -4.71942 -21
      vertex 72.8869 -4.53154 -25
      vertex 73.3486 -4.71942 -25
    endloop
  endfacet
  facet normal -0.467274 -0.884113 0
    outer loop
      vertex 72.4462 -4.29862 -25
      vertex 72.8869 -4.53154 -21
      vertex 72.4462 -4.29862 -21
    endloop
  endfacet
  facet normal -0.467274 -0.884113 -0
    outer loop
      vertex 72.8869 -4.53154 -21
      vertex 72.4462 -4.29862 -25
      vertex 72.8869 -4.53154 -25
    endloop
  endfacet
  facet normal -0.282817 -0.959174 0
    outer loop
      vertex 73.3486 -4.71942 -25
      vertex 73.8267 -4.86039 -21
      vertex 73.3486 -4.71942 -21
    endloop
  endfacet
  facet normal -0.282817 -0.959174 -0
    outer loop
      vertex 73.8267 -4.86039 -21
      vertex 73.3486 -4.71942 -25
      vertex 73.8267 -4.86039 -25
    endloop
  endfacet
  facet normal 0.990596 0.13682 0
    outer loop
      vertex 79.981 0.435779 -21
      vertex 79.9128 0.929558 -25
      vertex 79.9128 0.929558 -21
    endloop
  endfacet
  facet normal 0.990596 0.13682 0
    outer loop
      vertex 79.9128 0.929558 -25
      vertex 79.981 0.435779 -21
      vertex 79.981 0.435779 -25
    endloop
  endfacet
  facet normal -0.996202 -0.0870694 0
    outer loop
      vertex 70.0469 -0.683517 -25
      vertex 70.0035 -0.186957 -21
      vertex 70.0035 -0.186957 -25
    endloop
  endfacet
  facet normal -0.996202 -0.0870694 0
    outer loop
      vertex 70.0035 -0.186957 -21
      vertex 70.0469 -0.683517 -25
      vertex 70.0469 -0.683517 -21
    endloop
  endfacet
  facet normal -0.161334 0.9869 0
    outer loop
      vertex 74.4402 4.96856 -25
      vertex 73.9482 4.88813 -21
      vertex 74.4402 4.96856 -21
    endloop
  endfacet
  facet normal -0.161334 0.9869 0
    outer loop
      vertex 73.9482 4.88813 -21
      vertex 74.4402 4.96856 -25
      vertex 73.9482 4.88813 -25
    endloop
  endfacet
  facet normal 0.111971 -0.993712 0
    outer loop
      vertex 75.3115 -4.99029 -25
      vertex 75.8068 -4.93448 -21
      vertex 75.3115 -4.99029 -21
    endloop
  endfacet
  facet normal 0.111971 -0.993712 0
    outer loop
      vertex 75.8068 -4.93448 -21
      vertex 75.3115 -4.99029 -25
      vertex 75.8068 -4.93448 -25
    endloop
  endfacet
  facet normal 0.998064 -0.0621921 0
    outer loop
      vertex 79.9686 -0.559822 -21
      vertex 79.9996 -0.0623314 -25
      vertex 79.9996 -0.0623314 -21
    endloop
  endfacet
  facet normal 0.998064 -0.0621921 0
    outer loop
      vertex 79.9996 -0.0623314 -25
      vertex 79.9686 -0.559822 -21
      vertex 79.9686 -0.559822 -25
    endloop
  endfacet
  facet normal 0.943841 0.330401 0
    outer loop
      vertex 79.7959 1.4141 -21
      vertex 79.6312 1.88459 -25
      vertex 79.6312 1.88459 -21
    endloop
  endfacet
  facet normal 0.943841 0.330401 0
    outer loop
      vertex 79.6312 1.88459 -25
      vertex 79.7959 1.4141 -21
      vertex 79.7959 1.4141 -25
    endloop
  endfacet
  facet normal 0.972109 0.23453 0
    outer loop
      vertex 79.9128 0.929558 -21
      vertex 79.7959 1.4141 -25
      vertex 79.7959 1.4141 -21
    endloop
  endfacet
  facet normal 0.972109 0.23453 0
    outer loop
      vertex 79.7959 1.4141 -25
      vertex 79.9128 0.929558 -21
      vertex 79.9128 0.929558 -25
    endloop
  endfacet
  facet normal 0.037396 0.999301 -0
    outer loop
      vertex 75.4358 4.98097 -25
      vertex 74.9377 4.99961 -21
      vertex 75.4358 4.98097 -21
    endloop
  endfacet
  facet normal 0.037396 0.999301 0
    outer loop
      vertex 74.9377 4.99961 -21
      vertex 75.4358 4.98097 -25
      vertex 74.9377 4.99961 -25
    endloop
  endfacet
  facet normal 0.136696 0.990613 -0
    outer loop
      vertex 75.9296 4.91283 -25
      vertex 75.4358 4.98097 -21
      vertex 75.9296 4.91283 -21
    endloop
  endfacet
  facet normal 0.136696 0.990613 0
    outer loop
      vertex 75.4358 4.98097 -21
      vertex 75.9296 4.91283 -25
      vertex 75.4358 4.98097 -25
    endloop
  endfacet
  facet normal -0.0622909 0.998058 0
    outer loop
      vertex 74.9377 4.99961 -25
      vertex 74.4402 4.96856 -21
      vertex 74.9377 4.99961 -21
    endloop
  endfacet
  facet normal -0.0622909 0.998058 0
    outer loop
      vertex 74.4402 4.96856 -21
      vertex 74.9377 4.99961 -25
      vertex 74.4402 4.96856 -25
    endloop
  endfacet
  facet normal -0.993714 0.111945 0
    outer loop
      vertex 70.0097 0.311464 -25
      vertex 70.0655 0.806789 -21
      vertex 70.0655 0.806789 -25
    endloop
  endfacet
  facet normal -0.993714 0.111945 0
    outer loop
      vertex 70.0655 0.806789 -21
      vertex 70.0097 0.311464 -25
      vertex 70.0097 0.311464 -21
    endloop
  endfacet
  facet normal -0.999923 0.0124383 0
    outer loop
      vertex 70.0035 -0.186957 -25
      vertex 70.0097 0.311464 -21
      vertex 70.0097 0.311464 -25
    endloop
  endfacet
  facet normal -0.999923 0.0124383 0
    outer loop
      vertex 70.0097 0.311464 -21
      vertex 70.0035 -0.186957 -25
      vertex 70.0035 -0.186957 -21
    endloop
  endfacet
  facet normal -0.258855 0.965916 0
    outer loop
      vertex 73.9482 4.88813 -25
      vertex 73.4668 4.75912 -21
      vertex 73.9482 4.88813 -21
    endloop
  endfacet
  facet normal -0.258855 0.965916 0
    outer loop
      vertex 73.4668 4.75912 -21
      vertex 73.9482 4.88813 -25
      vertex 73.4668 4.75912 -25
    endloop
  endfacet
  facet normal 0.999304 0.0373151 0
    outer loop
      vertex 79.9996 -0.0623314 -21
      vertex 79.981 0.435779 -25
      vertex 79.981 0.435779 -21
    endloop
  endfacet
  facet normal 0.999304 0.0373151 0
    outer loop
      vertex 79.981 0.435779 -25
      vertex 79.9996 -0.0623314 -21
      vertex 79.9996 -0.0623314 -25
    endloop
  endfacet
  facet normal 0.986874 -0.161494 0
    outer loop
      vertex 79.8881 -1.05175 -21
      vertex 79.9686 -0.559822 -25
      vertex 79.9686 -0.559822 -21
    endloop
  endfacet
  facet normal 0.986874 -0.161494 0
    outer loop
      vertex 79.9686 -0.559822 -25
      vertex 79.8881 -1.05175 -21
      vertex 79.8881 -1.05175 -25
    endloop
  endfacet
  facet normal -0.959158 -0.282872 0
    outer loop
      vertex 70.2806 -1.65139 -25
      vertex 70.1396 -1.17329 -21
      vertex 70.1396 -1.17329 -25
    endloop
  endfacet
  facet normal -0.959158 -0.282872 0
    outer loop
      vertex 70.1396 -1.17329 -21
      vertex 70.2806 -1.65139 -25
      vertex 70.2806 -1.65139 -21
    endloop
  endfacet
  facet normal -0.982555 -0.18597 0
    outer loop
      vertex 70.1396 -1.17329 -25
      vertex 70.0469 -0.683517 -21
      vertex 70.0469 -0.683517 -25
    endloop
  endfacet
  facet normal -0.982555 -0.18597 0
    outer loop
      vertex 70.0469 -0.683517 -21
      vertex 70.1396 -1.17329 -25
      vertex 70.1396 -1.17329 -21
    endloop
  endfacet
  facet normal 0.306672 -0.951815 0
    outer loop
      vertex 76.2941 -4.82963 -25
      vertex 76.7685 -4.67678 -21
      vertex 76.2941 -4.82963 -21
    endloop
  endfacet
  facet normal 0.306672 -0.951815 0
    outer loop
      vertex 76.7685 -4.67678 -21
      vertex 76.2941 -4.82963 -25
      vertex 76.7685 -4.67678 -25
    endloop
  endfacet
  facet normal 0.210351 -0.977626 0
    outer loop
      vertex 75.8068 -4.93448 -25
      vertex 76.2941 -4.82963 -21
      vertex 75.8068 -4.93448 -21
    endloop
  endfacet
  facet normal 0.210351 -0.977626 0
    outer loop
      vertex 76.2941 -4.82963 -21
      vertex 75.8068 -4.93448 -25
      vertex 76.2941 -4.82963 -25
    endloop
  endfacet
  facet normal -0.0871595 -0.996194 0
    outer loop
      vertex 74.3165 -4.95306 -25
      vertex 74.813 -4.9965 -21
      vertex 74.3165 -4.95306 -21
    endloop
  endfacet
  facet normal -0.0871595 -0.996194 -0
    outer loop
      vertex 74.813 -4.9965 -21
      vertex 74.3165 -4.95306 -25
      vertex 74.813 -4.9965 -25
    endloop
  endfacet
  facet normal 0.0124564 -0.999922 0
    outer loop
      vertex 74.813 -4.9965 -25
      vertex 75.3115 -4.99029 -21
      vertex 74.813 -4.9965 -21
    endloop
  endfacet
  facet normal 0.0124564 -0.999922 0
    outer loop
      vertex 75.3115 -4.99029 -21
      vertex 74.813 -4.9965 -25
      vertex 75.3115 -4.99029 -25
    endloop
  endfacet
  facet normal -0.984379 -0.176061 0
    outer loop
      vertex 77.7395 0.239678 -25
      vertex 77.6527 0.724989 -21
      vertex 77.6527 0.724989 -25
    endloop
  endfacet
  facet normal -0.984379 -0.176061 0
    outer loop
      vertex 77.6527 0.724989 -21
      vertex 77.7395 0.239678 -25
      vertex 77.7395 0.239678 -21
    endloop
  endfacet
  facet normal 0.0423781 -0.999102 0
    outer loop
      vertex 74.6377 2.72602 -25
      vertex 75.1302 2.74691 -21
      vertex 74.6377 2.72602 -21
    endloop
  endfacet
  facet normal 0.0423781 -0.999102 0
    outer loop
      vertex 75.1302 2.74691 -21
      vertex 74.6377 2.72602 -25
      vertex 75.1302 2.74691 -25
    endloop
  endfacet
  facet normal -0.131765 0.991281 0
    outer loop
      vertex 75.6052 -2.68257 -25
      vertex 75.1165 -2.74753 -21
      vertex 75.6052 -2.68257 -21
    endloop
  endfacet
  facet normal -0.131765 0.991281 0
    outer loop
      vertex 75.1165 -2.74753 -21
      vertex 75.6052 -2.68257 -25
      vertex 75.1165 -2.74753 -25
    endloop
  endfacet
  facet normal -0.857189 0.515003 0
    outer loop
      vertex 77.2208 -1.62195 -25
      vertex 77.4747 -1.19935 -21
      vertex 77.4747 -1.19935 -25
    endloop
  endfacet
  facet normal -0.857189 0.515003 0
    outer loop
      vertex 77.4747 -1.19935 -21
      vertex 77.2208 -1.62195 -25
      vertex 77.2208 -1.62195 -21
    endloop
  endfacet
  facet normal -0.625424 -0.780285 0
    outer loop
      vertex 76.5207 2.29129 -25
      vertex 76.9054 1.98294 -21
      vertex 76.5207 2.29129 -21
    endloop
  endfacet
  facet normal -0.625424 -0.780285 -0
    outer loop
      vertex 76.9054 1.98294 -21
      vertex 76.5207 2.29129 -25
      vertex 76.9054 1.98294 -25
    endloop
  endfacet
  facet normal 0.807535 -0.58982 0
    outer loop
      vertex 72.6428 1.41635 -21
      vertex 72.9336 1.81449 -25
      vertex 72.9336 1.81449 -21
    endloop
  endfacet
  facet normal 0.807535 -0.58982 0
    outer loop
      vertex 72.9336 1.81449 -25
      vertex 72.6428 1.41635 -21
      vertex 72.6428 1.41635 -25
    endloop
  endfacet
  facet normal 0.548854 -0.835918 0
    outer loop
      vertex 73.2908 2.1543 -25
      vertex 73.7029 2.42488 -21
      vertex 73.2908 2.1543 -21
    endloop
  endfacet
  facet normal 0.548854 -0.835918 0
    outer loop
      vertex 73.7029 2.42488 -21
      vertex 73.2908 2.1543 -25
      vertex 73.7029 2.42488 -25
    endloop
  endfacet
  facet normal -0.859736 -0.510738 0
    outer loop
      vertex 77.4806 1.187 -25
      vertex 77.2288 1.61086 -21
      vertex 77.2288 1.61086 -25
    endloop
  endfacet
  facet normal -0.859736 -0.510738 0
    outer loop
      vertex 77.2288 1.61086 -21
      vertex 77.4806 1.187 -25
      vertex 77.4806 1.187 -21
    endloop
  endfacet
  facet normal -0.937097 -0.34907 0
    outer loop
      vertex 77.6527 0.724989 -25
      vertex 77.4806 1.187 -21
      vertex 77.4806 1.187 -25
    endloop
  endfacet
  facet normal -0.937097 -0.34907 0
    outer loop
      vertex 77.4806 1.187 -21
      vertex 77.6527 0.724989 -25
      vertex 77.6527 0.724989 -21
    endloop
  endfacet
  facet normal -0.754754 -0.656008 0
    outer loop
      vertex 77.2288 1.61086 -25
      vertex 76.9054 1.98294 -21
      vertex 76.9054 1.98294 -25
    endloop
  endfacet
  facet normal -0.754754 -0.656008 0
    outer loop
      vertex 76.9054 1.98294 -21
      vertex 77.2288 1.61086 -25
      vertex 77.2288 1.61086 -21
    endloop
  endfacet
  facet normal -0.311392 -0.950282 0
    outer loop
      vertex 75.6186 2.67952 -25
      vertex 76.0871 2.526 -21
      vertex 75.6186 2.67952 -21
    endloop
  endfacet
  facet normal -0.311392 -0.950282 -0
    outer loop
      vertex 76.0871 2.526 -21
      vertex 75.6186 2.67952 -25
      vertex 76.0871 2.526 -25
    endloop
  endfacet
  facet normal -0.136686 -0.990614 0
    outer loop
      vertex 75.1302 2.74691 -25
      vertex 75.6186 2.67952 -21
      vertex 75.1302 2.74691 -21
    endloop
  endfacet
  facet normal -0.136686 -0.990614 -0
    outer loop
      vertex 75.6186 2.67952 -21
      vertex 75.1302 2.74691 -25
      vertex 75.6186 2.67952 -25
    endloop
  endfacet
  facet normal -0.476037 -0.879425 0
    outer loop
      vertex 76.0871 2.526 -25
      vertex 76.5207 2.29129 -21
      vertex 76.0871 2.526 -21
    endloop
  endfacet
  facet normal -0.476037 -0.879425 -0
    outer loop
      vertex 76.5207 2.29129 -21
      vertex 76.0871 2.526 -25
      vertex 76.5207 2.29129 -25
    endloop
  endfacet
  facet normal 0.963151 -0.268962 0
    outer loop
      vertex 72.4107 0.911462 -21
      vertex 72.4278 0.972697 -25
      vertex 72.4278 0.972697 -21
    endloop
  endfacet
  facet normal 0.963151 -0.268962 0
    outer loop
      vertex 72.4278 0.972697 -25
      vertex 72.4107 0.911462 -21
      vertex 72.4107 0.911462 -25
    endloop
  endfacet
  facet normal 0.899897 -0.436102 0
    outer loop
      vertex 72.4278 0.972697 -21
      vertex 72.6428 1.41635 -25
      vertex 72.6428 1.41635 -21
    endloop
  endfacet
  facet normal 0.899897 -0.436102 0
    outer loop
      vertex 72.6428 1.41635 -25
      vertex 72.4278 0.972697 -21
      vertex 72.4278 0.972697 -25
    endloop
  endfacet
  facet normal 0.68925 -0.724523 0
    outer loop
      vertex 72.9336 1.81449 -25
      vertex 73.2908 2.1543 -21
      vertex 72.9336 1.81449 -21
    endloop
  endfacet
  facet normal 0.68925 -0.724523 0
    outer loop
      vertex 73.2908 2.1543 -21
      vertex 72.9336 1.81449 -25
      vertex 73.2908 2.1543 -25
    endloop
  endfacet
  facet normal 0.220043 -0.97549 0
    outer loop
      vertex 74.1567 2.61752 -25
      vertex 74.6377 2.72602 -21
      vertex 74.1567 2.61752 -21
    endloop
  endfacet
  facet normal 0.220043 -0.97549 0
    outer loop
      vertex 74.6377 2.72602 -21
      vertex 74.1567 2.61752 -25
      vertex 74.6377 2.72602 -25
    endloop
  endfacet
  facet normal -0.999997 0.002434 0
    outer loop
      vertex 77.7383 -0.253336 -25
      vertex 77.7395 0.239678 -21
      vertex 77.7395 0.239678 -25
    endloop
  endfacet
  facet normal -0.999997 0.002434 0
    outer loop
      vertex 77.7395 0.239678 -21
      vertex 77.7383 -0.253336 -25
      vertex 77.7383 -0.253336 -21
    endloop
  endfacet
  facet normal -0.306622 0.951831 0
    outer loop
      vertex 76.0745 -2.53139 -25
      vertex 75.6052 -2.68257 -21
      vertex 76.0745 -2.53139 -21
    endloop
  endfacet
  facet normal -0.306622 0.951831 0
    outer loop
      vertex 75.6052 -2.68257 -21
      vertex 76.0745 -2.53139 -25
      vertex 75.6052 -2.68257 -25
    endloop
  endfacet
  facet normal 0.390754 -0.920495 0
    outer loop
      vertex 73.7029 2.42488 -25
      vertex 74.1567 2.61752 -21
      vertex 73.7029 2.42488 -21
    endloop
  endfacet
  facet normal 0.390754 -0.920495 0
    outer loop
      vertex 74.1567 2.61752 -21
      vertex 73.7029 2.42488 -25
      vertex 74.1567 2.61752 -25
    endloop
  endfacet
  facet normal -0.935344 0.353739 0
    outer loop
      vertex 77.4747 -1.19935 -25
      vertex 77.6491 -0.738208 -21
      vertex 77.6491 -0.738208 -25
    endloop
  endfacet
  facet normal -0.935344 0.353739 0
    outer loop
      vertex 77.6491 -0.738208 -21
      vertex 77.4747 -1.19935 -25
      vertex 77.4747 -1.19935 -21
    endloop
  endfacet
  facet normal 0.224934 0.974374 -0
    outer loop
      vertex 74.6241 -2.72418 -25
      vertex 74.1437 -2.61328 -21
      vertex 74.6241 -2.72418 -21
    endloop
  endfacet
  facet normal 0.224934 0.974374 0
    outer loop
      vertex 74.1437 -2.61328 -21
      vertex 74.6241 -2.72418 -25
      vertex 74.1437 -2.61328 -25
    endloop
  endfacet
  facet normal -0.621462 0.783444 0
    outer loop
      vertex 76.8955 -1.99242 -25
      vertex 76.5092 -2.29885 -21
      vertex 76.8955 -1.99242 -21
    endloop
  endfacet
  facet normal -0.621462 0.783444 0
    outer loop
      vertex 76.5092 -2.29885 -21
      vertex 76.8955 -1.99242 -25
      vertex 76.5092 -2.29885 -25
    endloop
  endfacet
  facet normal -0.471693 0.881763 0
    outer loop
      vertex 76.5092 -2.29885 -25
      vertex 76.0745 -2.53139 -21
      vertex 76.5092 -2.29885 -21
    endloop
  endfacet
  facet normal -0.471693 0.881763 0
    outer loop
      vertex 76.0745 -2.53139 -21
      vertex 76.5092 -2.29885 -25
      vertex 76.0745 -2.53139 -25
    endloop
  endfacet
  facet normal -0.983496 0.18093 0
    outer loop
      vertex 77.6491 -0.738208 -25
      vertex 77.7383 -0.253336 -21
      vertex 77.7383 -0.253336 -25
    endloop
  endfacet
  facet normal -0.983496 0.18093 0
    outer loop
      vertex 77.7383 -0.253336 -21
      vertex 77.6491 -0.738208 -25
      vertex 77.6491 -0.738208 -21
    endloop
  endfacet
  facet normal 0.0473676 0.998878 -0
    outer loop
      vertex 75.1165 -2.74753 -25
      vertex 74.6241 -2.72418 -21
      vertex 75.1165 -2.74753 -21
    endloop
  endfacet
  facet normal 0.0473676 0.998878 0
    outer loop
      vertex 74.6241 -2.72418 -21
      vertex 75.1165 -2.74753 -25
      vertex 74.6241 -2.72418 -25
    endloop
  endfacet
  facet normal 0.39529 0.918557 -0
    outer loop
      vertex 74.1437 -2.61328 -25
      vertex 73.6908 -2.41838 -21
      vertex 74.1437 -2.61328 -21
    endloop
  endfacet
  facet normal 0.39529 0.918557 0
    outer loop
      vertex 73.6908 -2.41838 -21
      vertex 74.1437 -2.61328 -25
      vertex 73.6908 -2.41838 -25
    endloop
  endfacet
  facet normal 0.692859 0.721073 -0
    outer loop
      vertex 73.28 -2.14575 -25
      vertex 72.9245 -1.80416 -21
      vertex 73.28 -2.14575 -21
    endloop
  endfacet
  facet normal 0.692859 0.721073 0
    outer loop
      vertex 72.9245 -1.80416 -21
      vertex 73.28 -2.14575 -25
      vertex 72.9245 -1.80416 -25
    endloop
  endfacet
  facet normal 0.810569 0.585643 0
    outer loop
      vertex 72.9245 -1.80416 -21
      vertex 72.6358 -1.40458 -25
      vertex 72.6358 -1.40458 -21
    endloop
  endfacet
  facet normal 0.810569 0.585643 0
    outer loop
      vertex 72.6358 -1.40458 -25
      vertex 72.9245 -1.80416 -21
      vertex 72.9245 -1.80416 -25
    endloop
  endfacet
  facet normal 0.901665 0.432435 0
    outer loop
      vertex 72.6358 -1.40458 -21
      vertex 72.6083 -1.34724 -25
      vertex 72.6083 -1.34724 -21
    endloop
  endfacet
  facet normal 0.901665 0.432435 0
    outer loop
      vertex 72.6083 -1.34724 -25
      vertex 72.6358 -1.40458 -21
      vertex 72.6358 -1.40458 -25
    endloop
  endfacet
  facet normal -0.751431 0.659812 0
    outer loop
      vertex 76.8955 -1.99242 -25
      vertex 77.2208 -1.62195 -21
      vertex 77.2208 -1.62195 -25
    endloop
  endfacet
  facet normal -0.751431 0.659812 0
    outer loop
      vertex 77.2208 -1.62195 -21
      vertex 76.8955 -1.99242 -25
      vertex 76.8955 -1.99242 -21
    endloop
  endfacet
  facet normal 0.552962 0.833206 -0
    outer loop
      vertex 73.6908 -2.41838 -25
      vertex 73.28 -2.14575 -21
      vertex 73.6908 -2.41838 -21
    endloop
  endfacet
  facet normal 0.552962 0.833206 0
    outer loop
      vertex 73.28 -2.14575 -21
      vertex 73.6908 -2.41838 -25
      vertex 73.28 -2.14575 -25
    endloop
  endfacet
  facet normal 0.996195 0.087151 0
    outer loop
      vertex 72.6083 -1.34724 -21
      vertex 72.4107 0.911462 -25
      vertex 72.4107 0.911462 -21
    endloop
  endfacet
  facet normal 0.996195 0.087151 0
    outer loop
      vertex 72.4107 0.911462 -25
      vertex 72.6083 -1.34724 -21
      vertex 72.6083 -1.34724 -25
    endloop
  endfacet
endsolid OpenSCAD_Model
